<svg version="1.1" id="Layer_1" xmlns="http://www.w3.org/2000/svg" xmlns:xlink="http://www.w3.org/1999/xlink" x="0px" y="0px"
	 width="100%" viewBox="0 0 496 588" enable-background="new 0 0 496 588" xml:space="preserve">
<path fill="#FFFFFE" opacity="1.000000" stroke="none" 
	d="
M0.999999,542.000000 
	C1.000000,361.745331 1.000000,181.490646 1.000000,1.000000 
	C154.687485,1.000000 308.375092,1.000000 462.404144,1.348361 
	C458.502960,3.547280 454.038574,5.012908 450.052673,7.309120 
	C417.344391,26.151701 384.711395,45.125183 352.082947,64.105972 
	C322.045349,81.579613 292.041656,99.111534 261.664398,116.765549 
	C256.523682,119.208282 251.575409,121.213570 246.987274,123.846466 
	C222.158279,138.094589 197.421417,152.503281 172.647156,166.846832 
	C126.412064,193.615646 80.162315,220.359253 33.979786,247.218430 
	C32.342918,248.170395 30.480122,250.098175 30.202971,251.810715 
	C27.699404,267.280762 34.705486,279.632446 49.065426,286.139038 
	C52.214718,287.565948 54.678524,287.533752 57.799854,285.718933 
	C117.221596,251.169220 176.719284,216.750168 236.208557,182.316650 
	C237.842804,181.370728 239.558273,180.565140 241.885986,179.356598 
	C241.885986,182.307419 241.885986,184.281509 241.886002,186.255600 
	C241.886459,251.071396 241.919891,315.887238 241.801910,380.702820 
	C241.795135,384.426147 242.892197,386.862030 245.778412,389.139984 
	C260.527252,400.780670 274.985718,399.447906 288.402283,384.928833 
	C339.758575,355.280487 390.784943,325.739166 442.893646,295.571198 
	C442.893646,299.091339 442.893616,301.042969 442.893646,302.994629 
	C442.894714,367.660065 442.882599,432.325531 442.953064,496.990906 
	C442.955475,499.202118 443.050323,502.127045 444.370972,503.487549 
	C448.157501,507.388367 452.143127,511.515533 456.866119,514.008362 
	C470.560791,521.236633 488.906769,509.663879 488.906830,494.253967 
	C488.907135,421.421997 488.908417,348.590057 488.904266,275.758087 
	C488.903809,268.096283 488.869934,260.434509 488.921783,252.357635 
	C488.914703,249.943939 488.837372,247.945328 488.813782,245.633057 
	C488.832245,244.898087 488.796997,244.476761 488.882874,243.595764 
	C489.018585,171.062241 489.034454,98.988365 489.034180,26.914492 
	C489.034180,25.929436 488.829956,24.944378 488.757446,23.631525 
	C488.717102,22.873632 488.640381,22.443537 488.672974,21.729229 
	C488.550598,20.903683 488.318909,20.362349 488.080353,19.451298 
	C485.951447,10.885183 480.771027,5.582913 472.806396,2.880484 
	C471.178955,2.328280 469.600861,1.630622 468.000000,1.000003 
	C477.659241,1.000000 487.318481,1.000000 497.000000,1.000000 
	C497.000000,181.020889 497.000000,361.041779 496.674988,541.528809 
	C495.916809,541.991516 495.483643,541.988098 494.727966,541.913879 
	C493.345062,541.590271 492.284607,541.337463 490.988434,541.098877 
	C490.429657,541.201904 490.190460,541.394775 489.826477,541.929199 
	C489.310608,542.455078 489.003387,542.743347 488.515198,543.163513 
	C488.127136,543.533752 488.032806,543.810547 488.077332,544.487061 
	C488.004761,545.563538 487.906158,546.278809 487.426697,547.103638 
	C486.863373,552.935120 486.667480,558.656921 486.554199,564.380310 
	C486.550232,564.580627 487.369171,564.797180 487.885925,565.378540 
	C487.910950,566.507019 487.854645,567.263123 487.487244,568.173096 
	C486.519531,568.527161 485.862946,568.727234 485.006927,568.737671 
	C483.870667,567.030396 482.933777,565.512695 481.937988,563.788940 
	C481.741364,563.315979 481.532257,563.128845 480.998932,562.780029 
	C476.143219,555.738953 471.540283,548.939392 466.929260,541.830139 
	C466.266724,541.388855 465.612213,541.257141 464.622101,541.175781 
	C463.611511,541.184204 462.936493,541.142212 462.019958,541.109009 
	C461.445770,541.201965 461.197113,541.394592 460.777985,541.916748 
	C459.888000,542.772278 459.252472,543.406555 458.450806,544.176880 
	C458.099792,544.551697 458.021210,544.821472 458.082581,545.528687 
	C458.016785,547.288025 457.917358,548.640869 457.467773,550.079834 
	C455.687317,552.311340 454.735321,554.399658 457.900269,556.467590 
	C457.929260,563.283630 457.872986,569.638611 457.474335,576.072144 
	C457.360718,577.769226 457.589508,579.387756 457.903870,581.383789 
	C458.332977,583.494629 458.676483,585.228027 459.007172,587.301025 
	C458.996246,588.093750 458.998138,588.546875 459.000000,589.000000 
	C449.645782,589.000000 440.291534,589.000000 430.633667,588.651001 
	C445.468231,585.468079 452.769867,574.060425 449.398865,558.510010 
	C446.832092,546.669556 437.713593,540.174377 425.189850,541.265747 
	C413.336182,542.298706 405.902252,550.156616 404.948486,562.008057 
	C403.907806,574.939514 409.899841,583.423035 421.000000,589.000000 
	C413.645752,589.000000 406.291504,589.000000 398.476471,588.692505 
	C398.023346,587.974915 398.030975,587.564941 398.037506,587.099976 
	C398.036407,587.044983 398.146301,587.047607 398.356018,586.927734 
	C398.822876,586.582642 398.960754,586.299438 398.972412,585.587341 
	C398.983154,584.475769 399.000916,583.735046 399.243378,582.832886 
	C399.030273,582.110840 398.592438,581.550110 397.940460,580.732544 
	C397.161652,579.278687 396.596985,578.081665 395.989075,576.703369 
	C395.836853,576.280823 395.657013,576.117737 395.183197,575.790649 
	C394.653809,574.979614 394.347534,574.410583 393.984253,573.661865 
	C393.800262,573.246887 393.607819,573.094238 393.100159,572.810669 
	C391.885956,571.429810 390.921387,570.262512 389.973877,568.736206 
	C389.999512,567.658020 390.008148,566.938904 390.216583,566.086304 
	C390.416412,565.952759 390.897034,565.956482 391.117920,565.930298 
	C391.635742,565.798035 391.848419,565.600952 392.231812,565.117432 
	C393.047943,564.629028 393.609070,564.335999 394.364258,563.970459 
	C394.803192,563.743286 394.968109,563.527405 395.207855,562.955627 
	C396.019196,561.765198 396.675751,560.869568 397.513184,559.832825 
	C397.896057,559.436279 397.973358,559.147522 397.905914,558.514648 
	C397.998901,557.806824 398.111908,557.409668 398.564453,556.931396 
	C398.666443,555.229980 398.428925,553.609680 398.069122,551.730774 
	C397.918518,551.095886 397.890137,550.719604 397.858276,550.080383 
	C397.641907,549.550476 397.428986,549.283447 397.019775,548.759521 
	C396.229156,547.613831 395.634827,546.725098 394.950745,545.633362 
	C394.677917,545.177063 394.432617,545.022522 393.811829,544.883789 
	C392.987579,544.402893 392.476532,544.005005 391.848541,543.435852 
	C391.509277,543.072144 391.251709,542.989136 390.605652,543.010742 
	C389.815948,542.841553 389.379425,542.677185 388.790192,542.356262 
	C388.370087,542.042358 388.086945,542.005249 387.334534,542.137207 
	C379.278839,542.134399 371.676605,542.082947 363.863861,542.044067 
	C363.363586,542.141785 363.158356,542.322754 362.763397,542.842896 
	C361.874756,544.383423 361.260345,545.680664 360.278992,547.106567 
	C359.621002,547.798462 359.079346,548.360291 359.076080,548.925232 
	C359.015686,559.396606 358.980042,569.868652 359.079834,580.339294 
	C359.088409,581.239075 360.084839,582.129333 360.734802,583.366943 
	C361.222748,584.837952 361.598328,585.966125 361.970398,587.411926 
	C361.977905,588.153076 361.988953,588.576538 362.000000,589.000000 
	C353.645782,589.000000 345.291534,589.000000 336.444214,588.713501 
	C335.994415,588.047058 336.037720,587.666992 336.429077,587.209167 
	C337.486938,587.064941 338.196716,586.998535 339.139099,586.986938 
	C339.733734,587.004089 339.965576,586.810425 340.345398,586.316284 
	C341.029724,586.074707 341.435852,585.977905 342.105286,585.904297 
	C342.594910,585.675049 342.821198,585.422485 343.334259,584.988403 
	C355.321747,577.640686 354.704926,556.753784 348.254547,549.370972 
	C345.783844,546.543091 342.117493,543.674377 338.609039,543.069946 
	C331.813721,541.899109 324.743744,542.143616 317.788391,542.159729 
	C314.572144,542.167175 313.237488,544.665161 313.227142,547.650146 
	C313.187439,559.117859 313.077606,570.590454 313.412811,582.049011 
	C313.465088,583.835938 315.693573,585.559265 316.922607,587.595276 
	C316.953003,588.252380 316.976501,588.626160 317.000000,589.000000 
	C312.643097,589.000000 308.286194,589.000000 303.443817,588.718140 
	C303.000244,588.063049 303.042114,587.689819 303.418518,587.177673 
	C304.349579,585.516663 305.819916,583.543701 305.325104,582.584778 
	C304.682007,581.338440 302.498993,580.274536 300.939850,580.218689 
	C294.018707,579.970642 287.083679,580.111206 280.113403,580.111206 
	C280.113403,575.483643 280.113403,571.552490 280.113403,567.195984 
	C286.706177,567.195984 293.019379,567.368103 299.308655,567.056946 
	C300.631989,566.991394 301.867615,565.151611 303.143646,564.129456 
	C301.927612,562.841003 300.924652,561.102173 299.432953,560.396545 
	C298.063080,559.748535 296.166534,560.195679 294.501984,560.192200 
	C289.736115,560.182373 284.970245,560.188721 280.250977,560.188721 
	C280.250977,556.147339 280.250977,552.783142 280.250977,549.132263 
	C287.151947,549.132263 293.642059,549.378113 300.090424,548.967651 
	C301.805817,548.858521 303.393066,546.736145 305.039124,545.538025 
	C303.351379,544.353149 301.708191,542.227600 299.968231,542.145142 
	C292.159088,541.775391 284.321838,542.047302 276.496002,541.964722 
	C271.964569,541.916931 270.259613,544.308167 270.265350,548.500183 
	C270.280121,559.324341 270.072845,570.154968 270.430969,580.967163 
	C270.502014,583.112183 272.699829,585.186707 273.926147,587.579834 
	C273.956909,588.243958 273.978455,588.621948 274.000000,589.000000 
	C269.310760,589.000000 264.621490,589.000000 259.474365,588.683472 
	C259.022675,587.944824 259.028900,587.522827 259.141113,586.818909 
	C259.571716,586.029846 259.896332,585.522644 260.600037,584.904419 
	C261.299377,584.254944 261.896027,583.718079 261.899109,583.177856 
	C261.967194,571.312378 262.004547,559.446228 261.912140,547.581238 
	C261.905365,546.708313 260.871094,545.843384 260.167053,544.671326 
	C259.355194,543.475037 258.690826,542.582153 257.939117,541.352783 
	C256.224701,541.309265 254.597687,541.602356 252.842789,542.122559 
	C252.439240,542.555481 252.163559,542.761353 251.603302,542.997375 
	C251.198273,543.680786 251.077820,544.333984 250.998291,545.416138 
	C250.961517,547.562988 250.883850,549.280884 250.350433,550.999268 
	C243.657379,550.999512 237.420044,550.999207 231.092865,550.577759 
	C231.012054,548.434509 231.021088,546.712402 231.254272,544.821777 
	C231.013306,544.091736 230.548157,543.530151 230.045197,542.972351 
	C230.007370,542.976074 230.039810,542.907349 230.036987,542.543335 
	C228.668564,540.884888 227.302948,539.590393 225.937332,538.295959 
	C225.279465,539.412537 224.621582,540.529175 223.712311,541.877319 
	C222.858002,543.062988 222.255081,544.017090 221.283783,545.097534 
	C220.625397,545.782227 220.085037,546.339355 220.082306,546.899048 
	C220.024521,558.755249 219.991562,570.612061 220.092804,582.467590 
	C220.100098,583.322693 221.172058,584.168762 221.872101,585.243774 
	C222.002701,585.639221 222.010178,585.809875 222.067184,586.217773 
	C222.274109,586.761658 222.519089,586.960632 222.900681,587.045288 
	C222.949753,587.038696 222.935699,587.136719 222.944000,587.447388 
	C222.968216,588.172058 222.984100,588.585999 223.000000,589.000000 
	C220.299988,589.000000 217.599976,589.000000 214.444611,588.632568 
	C213.961945,587.776245 213.934631,587.287292 213.960861,586.551819 
	C214.135849,586.189026 214.257309,586.072693 214.547150,585.815308 
	C214.900192,585.426514 214.975281,585.149109 214.874939,584.540161 
	C214.854950,583.831543 214.900894,583.424683 215.179382,582.869934 
	C215.026718,582.143799 214.641525,581.565552 214.122101,580.753052 
	C213.993622,580.338745 213.999359,580.158813 213.977142,579.791870 
	C213.861816,579.352356 213.697922,579.167969 213.267578,578.752075 
	C212.991791,577.990051 212.905960,577.527588 213.075500,576.909973 
	C212.880890,576.174500 212.430923,575.594055 211.991180,575.008057 
	C212.001434,575.002441 211.984467,575.022217 211.956345,574.823120 
	C211.833481,574.356201 211.657608,574.161621 211.216797,573.736328 
	C210.677612,572.317139 210.322250,571.202026 209.937607,569.875977 
	C209.809387,569.382507 209.626999,569.172302 209.184341,568.739990 
	C208.898819,568.002197 208.790085,567.558960 208.956848,566.966125 
	C208.780182,566.238525 208.328018,565.660583 207.930588,565.051758 
	C207.985336,565.020935 207.901794,565.114807 207.939911,564.740234 
	C207.371277,563.241882 206.764542,562.117981 206.020035,560.828552 
	C205.882263,560.662964 205.904587,560.232666 205.939697,559.847778 
	C205.358688,558.307068 204.742584,557.151245 203.989410,555.850098 
	C203.852356,555.704834 203.880722,555.306274 203.868164,555.052856 
	C203.650238,554.540405 203.444870,554.281494 203.101257,553.803955 
	C202.966995,553.413147 202.970963,553.240784 202.950272,552.862793 
	C202.834900,552.379028 202.659042,552.173889 202.205139,551.740845 
	C201.666153,550.317566 201.320007,549.195190 200.948990,547.866699 
	C200.833267,547.382019 200.657578,547.175720 200.203033,546.759888 
	C198.999741,544.995850 197.990479,543.513672 196.957901,541.729126 
	C196.275604,541.326538 195.616592,541.226257 194.591843,541.178467 
	C192.212616,541.847412 190.199142,542.463928 187.883041,543.077148 
	C187.362183,543.708618 187.143951,544.343445 186.906219,545.313110 
	C186.481857,546.442444 186.077026,547.237061 185.495529,548.174683 
	C185.121216,548.569214 185.036850,548.854248 185.061340,549.510132 
	C184.873978,550.251343 184.691010,550.655212 184.365082,551.169861 
	C184.062714,551.476440 183.985413,551.700562 183.990097,552.243896 
	C183.888702,552.700073 183.787445,552.865356 183.506317,553.175537 
	C183.125549,553.576233 183.040985,553.866028 183.066986,554.524109 
	C182.878265,555.258240 182.695297,555.658020 182.368469,556.168701 
	C182.063965,556.475708 181.985840,556.700562 181.988983,557.244263 
	C181.887314,557.699829 181.786850,557.865234 181.506805,558.174438 
	C181.126022,558.572266 181.040283,558.860657 181.064514,559.517822 
	C180.878738,560.253845 180.698425,560.655334 180.372665,561.168701 
	C180.064911,561.479309 179.987076,561.706848 179.992859,562.251221 
	C179.891785,562.702881 179.791504,562.866577 179.510010,563.176819 
	C179.126465,563.582336 179.042709,563.875305 179.080780,564.515320 
	C178.722580,565.555786 178.361099,566.283142 177.698380,567.039368 
	C177.314438,567.729248 177.231750,568.390198 177.127975,569.407593 
	C176.914322,570.194092 176.721756,570.624084 176.381531,571.164062 
	C176.068298,571.470886 175.985977,571.697876 175.975769,572.322021 
	C175.487320,573.810608 175.010040,574.932190 174.383301,576.167114 
	C174.067139,576.483276 173.987686,576.715942 173.987427,577.341675 
	C173.512802,578.818604 173.046219,579.932129 172.419403,581.180298 
	C172.083130,581.550537 172.011078,581.814575 172.071442,582.468018 
	C172.405960,584.205994 172.712067,585.583008 173.007294,587.299805 
	C172.997604,588.093140 172.998795,588.546570 173.000000,589.000000 
	C170.629440,589.000000 168.258896,589.000000 165.442993,588.726318 
	C164.984421,588.270691 164.971176,588.088745 165.087189,587.605408 
	C165.933945,586.541626 166.651428,585.779236 167.635406,584.963257 
	C167.667374,584.269775 167.432831,583.630066 167.072174,582.776978 
	C166.946045,582.563599 166.975250,582.068726 166.950287,581.862305 
	C166.833328,581.376709 166.655731,581.171753 166.222260,580.793518 
	C166.039062,580.346252 166.026154,580.146423 165.973785,579.758240 
	C165.829468,579.318848 165.651047,579.142090 165.220795,578.815918 
	C165.024796,578.402222 165.007065,578.212341 164.946808,577.817505 
	C164.789047,577.341248 164.596008,577.147461 164.100479,576.798279 
	C163.596176,575.997192 163.316559,575.429016 162.984528,574.687866 
	C162.820358,574.286743 162.645279,574.128601 162.150330,573.819214 
	C160.941025,572.363770 159.988251,571.129822 159.031738,569.508667 
	C159.019394,568.088867 159.010818,567.056274 159.195770,565.797607 
	C159.941406,565.384949 160.493515,565.198486 161.237595,564.968384 
	C161.684662,564.813538 161.862244,564.628235 162.184174,564.105469 
	C163.640549,562.229309 164.875046,560.616333 166.479431,558.915222 
	C168.404037,556.075989 169.367386,553.371521 166.107147,550.746033 
	C165.992508,550.318787 166.001511,550.136292 165.981384,549.773071 
	C165.865860,549.349365 165.707123,549.170593 165.285919,548.806763 
	C165.069870,548.349915 165.043930,548.142517 164.966522,547.743164 
	C164.793121,547.298767 164.599884,547.126038 164.065247,546.836487 
	C163.188934,545.988037 162.582733,545.336243 161.883209,544.505371 
	C161.600418,544.113098 161.363373,543.997131 160.750793,543.921143 
	C160.255737,543.717712 160.088623,543.571655 159.814850,543.299622 
	C159.525055,543.033752 159.318329,542.966858 158.805450,542.975891 
	C158.354858,542.893799 158.186798,542.808716 157.995193,542.456055 
	C157.647766,541.791504 157.323883,541.394531 156.940247,540.652100 
	C153.920792,540.799377 150.961060,541.292053 147.593048,541.875732 
	C142.213074,541.978027 137.241394,541.989258 132.016235,542.035400 
	C131.516495,542.292603 131.270218,542.514832 130.819916,542.968872 
	C130.310638,543.476501 130.005386,543.752319 129.513596,544.159058 
	C129.114258,544.533691 129.023041,544.816589 129.073746,545.545044 
	C128.995438,547.300781 128.896790,548.650146 128.443298,550.005493 
	C126.739471,550.827576 124.853973,551.319946 124.132591,552.515015 
	C120.644073,558.293945 114.983917,559.326782 108.955376,559.560181 
	C108.930061,556.410889 109.014832,553.701416 109.295990,550.895447 
	C109.737259,550.619995 109.904030,550.385498 110.433731,549.974121 
	C113.197250,549.836121 115.520485,549.774475 117.842018,549.813599 
	C121.045181,549.867493 123.342026,548.779785 123.884796,545.066162 
	C123.809303,544.493469 123.632889,544.234070 123.107933,543.784058 
	C121.580063,542.944153 120.293983,542.367432 118.986252,541.388062 
	C118.032310,540.326233 117.110565,539.112976 116.166069,539.095032 
	C108.116310,538.941833 100.059685,538.906189 92.013176,539.128113 
	C90.982407,539.156616 89.997948,540.863708 88.657074,541.898865 
	C87.119011,542.665344 85.915901,543.326172 84.314636,543.988281 
	C82.855339,544.026611 81.794205,544.063660 80.470139,543.923950 
	C79.140503,543.102234 78.073784,542.457214 76.986298,541.408203 
	C76.203369,540.342285 75.453041,539.122131 74.677177,539.105713 
	C67.618217,538.955933 60.551846,538.920471 53.496502,539.138550 
	C52.635227,539.165222 51.826244,540.883179 50.699841,541.929810 
	C49.991608,542.047485 49.576565,542.052795 48.939377,542.088318 
	C48.418682,542.217896 48.193249,542.405212 47.848396,542.906006 
	C47.377934,543.412109 47.100014,543.692749 46.586861,544.100708 
	C46.283730,544.561035 46.215824,544.894165 46.131687,545.606201 
	C46.008659,546.987610 45.901863,547.990173 45.392105,549.013916 
	C44.328613,549.968384 43.109520,550.892700 43.094296,551.836487 
	C42.948231,560.887390 42.916206,569.943604 43.127537,578.991882 
	C43.151489,580.017212 44.872837,581.002869 45.909065,582.337524 
	C46.352417,583.760010 46.693802,584.851807 47.007904,586.212402 
	C46.984604,586.661133 46.988586,586.841187 46.994625,587.350952 
	C46.997791,588.120544 46.998894,588.560242 47.000000,589.000000 
	C45.611111,589.000000 44.222221,589.000000 42.416161,588.607666 
	C41.009571,586.024658 39.906620,583.876221 39.069420,581.628845 
	C38.481266,580.049988 37.423664,577.914612 38.011459,576.756226 
	C40.518082,571.816101 40.324932,566.948914 39.191792,561.752991 
	C38.368134,557.976135 35.959766,556.879395 32.000000,556.040405 
	C32.000000,559.277588 32.140881,562.056152 31.973507,564.816040 
	C31.476723,573.007446 34.217224,581.747070 28.000000,589.000000 
	C27.250000,589.000000 26.500000,589.000000 25.367466,588.613953 
	C24.948675,587.714478 24.912418,587.200989 24.942108,586.293823 
	C25.254639,583.626465 25.673744,581.356079 25.717638,579.078491 
	C25.898029,569.718201 25.964294,560.355774 26.273235,550.900635 
	C26.725372,550.631042 26.897881,550.396790 27.427992,549.980164 
	C31.738798,549.512756 35.613068,549.169556 39.831757,548.852661 
	C40.355682,548.216919 40.535187,547.554932 40.667793,546.588379 
	C40.683033,545.880005 40.745178,545.476257 41.068485,544.904114 
	C40.809364,544.188782 40.289078,543.641724 39.471458,543.025696 
	C38.451183,542.585205 37.728241,542.213684 36.941498,541.460449 
	C35.859943,540.390869 34.853283,539.126099 33.822701,539.106323 
	C25.351469,538.943420 16.872843,538.904297 8.404892,539.135864 
	C7.244343,539.167603 6.130198,540.895874 4.764719,541.961670 
	C4.194508,542.114258 3.854144,542.143860 3.096212,542.121704 
	C2.119095,542.046753 1.559547,542.023376 0.999999,542.000000 
M148.890762,536.801331 
	C148.009552,536.263428 147.128342,535.725525 146.247131,535.187561 
	C146.011703,535.644958 145.776291,536.102356 145.540878,536.559814 
	C146.428360,536.689880 147.315857,536.819946 148.890762,536.801331 
M138.543350,535.711670 
	C137.964249,535.599548 137.385147,535.487488 136.806046,535.375366 
	C136.800964,535.786316 136.795883,536.197205 136.790817,536.608154 
	C137.372635,536.510193 137.954437,536.412292 138.543350,535.711670 
z"/>
<path fill="#FB0202" opacity="1.000000" stroke="none" 
	d="
M488.761719,244.055435 
	C488.796997,244.476761 488.832245,244.898087 488.605682,245.777878 
	C487.977295,246.778198 487.610748,247.320053 487.113892,247.540344 
	C478.960938,233.384750 466.451385,229.903641 452.534668,237.612061 
	C449.364380,239.368088 446.157715,241.058533 442.930267,242.332733 
	C442.892761,182.755997 442.892761,123.625671 442.892761,63.895821 
	C440.818359,64.997986 439.631042,65.579865 438.490326,66.242119 
	C411.882782,81.689850 385.296417,97.174164 358.671997,112.592720 
	C335.219818,126.174202 311.726105,139.683975 288.098450,152.779480 
	C287.762909,147.535446 287.556519,142.738083 287.401978,137.939056 
	C287.190338,131.366547 284.631683,125.519791 279.063965,122.426918 
	C273.901123,119.558968 267.742950,118.482887 262.023041,116.617790 
	C292.041656,99.111534 322.045349,81.579613 352.082947,64.105972 
	C384.711395,45.125183 417.344391,26.151701 450.052673,7.309120 
	C454.038574,5.012908 458.502960,3.547280 462.872803,1.348361 
	C464.388885,1.000000 465.777802,1.000000 467.583344,1.000003 
	C469.600861,1.630622 471.178955,2.328280 472.806396,2.880484 
	C480.771027,5.582913 485.951447,10.885183 487.984497,19.744251 
	C488.118256,20.942427 488.340973,21.477932 488.563660,22.013439 
	C488.640381,22.443537 488.717102,22.873632 488.509094,23.966024 
	C488.142456,25.451487 487.989075,26.274643 487.988953,27.097820 
	C487.979523,97.987808 487.977386,168.877792 488.015961,239.767761 
	C488.016754,241.197113 488.502319,242.626221 488.761719,244.055435 
z"/>
<path fill="#FFFFFF" opacity="1.000000" stroke="none" 
	d="
M100.000000,589.000000 
	C93.645599,589.000000 87.291206,589.000000 80.470291,588.674805 
	C80.006279,587.915894 80.008789,587.482300 80.166740,586.783081 
	C80.675194,586.015930 81.028206,585.514221 81.618057,584.816956 
	C81.615173,583.743225 81.375450,582.865173 80.944809,581.767944 
	C80.490028,581.266113 80.226158,580.983276 79.814056,580.521240 
	C79.407715,580.142883 79.116035,580.054871 78.579590,580.123047 
	C78.368378,580.168213 78.002434,579.938660 77.906616,579.546631 
	C76.309349,578.769836 74.818199,578.109863 73.304497,578.053284 
	C69.173561,577.898987 65.025612,577.846436 60.898899,578.048950 
	C57.792694,578.201416 57.044613,576.911621 56.905018,573.991882 
	C56.720253,570.127502 57.883709,568.527222 61.914825,568.937134 
	C65.026520,569.253601 68.206718,569.148926 71.334846,568.926880 
	C72.590630,568.837708 73.788597,567.933960 75.369385,567.272766 
	C79.944260,565.652588 79.925133,563.379395 76.791893,560.408569 
	C76.397575,560.096191 76.127930,560.030029 75.482651,560.137756 
	C74.421173,560.124756 73.711868,560.033325 72.986145,559.530151 
	C71.902596,558.413818 70.887459,557.221558 69.758049,557.101135 
	C66.981514,556.805115 64.111374,557.286377 61.360611,556.889038 
	C59.836830,556.669006 58.477318,555.311401 57.043755,554.466553 
	C58.588520,553.359131 60.030308,551.530029 61.699127,551.291931 
	C65.372055,550.767761 69.167274,551.165283 72.895584,550.923889 
	C73.963821,550.854675 74.973801,549.885925 76.359238,549.231323 
	C77.836868,548.764832 78.965759,548.396545 80.489090,548.023743 
	C82.198074,548.015320 83.512611,548.011414 85.118774,548.224487 
	C87.272888,548.981628 89.135391,549.521790 91.084930,550.440613 
	C93.760780,551.213562 96.349602,551.607849 99.044609,552.460327 
	C99.163429,556.741699 99.081177,560.568176 99.208885,564.387573 
	C99.457726,571.829163 99.824165,579.266724 100.100983,587.087097 
	C100.040047,587.978821 100.020020,588.489380 100.000000,589.000000 
z"/>
<path fill="#EE0D0B" opacity="1.000000" stroke="none" 
	d="
M487.807556,546.994141 
	C487.906158,546.278809 488.004761,545.563538 488.279968,544.373657 
	C488.684448,543.650818 488.764313,543.361633 488.696136,543.031616 
	C489.003387,542.743347 489.310608,542.455078 490.067261,541.928284 
	C490.860229,541.614075 491.096039,541.412415 491.224152,541.084717 
	C492.284607,541.337463 493.345062,541.590271 494.809143,542.184082 
	C495.498260,543.006042 495.783722,543.487000 496.011475,544.435608 
	C495.969177,559.602234 495.984589,574.301086 496.000000,589.000000 
	C493.958344,589.000000 491.916656,589.000000 489.365051,588.656738 
	C485.569092,583.817017 482.187042,579.386841 479.021820,574.806885 
	C475.225922,569.314514 471.614929,563.694275 467.923859,558.129395 
	C466.897278,566.311829 466.976105,574.079712 466.871704,581.845154 
	C466.791718,587.796204 464.494965,589.219604 459.019958,586.961487 
	C458.676483,585.228027 458.332977,583.494629 457.999878,580.973389 
	C457.945801,578.788208 457.881256,577.390930 457.816711,575.993591 
	C457.872986,569.638611 457.929260,563.283630 457.996674,556.045959 
	C457.944519,553.440063 457.881195,551.716858 457.817902,549.993652 
	C457.917358,548.640869 458.016785,547.288025 458.272705,545.411438 
	C458.632233,544.636536 458.694855,544.354248 458.616974,544.040833 
	C459.252472,543.406555 459.888000,542.772278 461.026459,541.927795 
	C461.890198,541.650330 462.134247,541.444580 462.261505,541.100281 
	C462.936493,541.142212 463.611511,541.184204 464.802551,541.400513 
	C465.858154,541.763184 466.397736,541.951477 466.937317,542.139771 
	C471.540283,548.939392 476.143219,555.738953 481.004272,563.012329 
	C481.410828,563.794861 481.655670,563.964539 481.996887,563.995056 
	C482.933777,565.512695 483.870667,567.030396 485.024963,569.008911 
	C485.982330,570.382690 486.722260,571.295471 488.091400,572.984497 
	C487.949707,570.584229 487.874023,569.301697 487.798340,568.019165 
	C487.854645,567.263123 487.910950,566.507019 487.979614,564.918640 
	C487.930481,558.388916 487.869019,552.691528 487.807556,546.994141 
z"/>
<path fill="#F00E0C" opacity="1.000000" stroke="none" 
	d="
M421.449982,589.000000 
	C409.899841,583.423035 403.907806,574.939514 404.948486,562.008057 
	C405.902252,550.156616 413.336182,542.298706 425.189850,541.265747 
	C437.713593,540.174377 446.832092,546.669556 449.398865,558.510010 
	C452.769867,574.060425 445.468231,585.468079 430.165009,588.651001 
	C427.299988,589.000000 424.599976,589.000000 421.449982,589.000000 
M439.734131,558.375244 
	C436.947327,551.256470 433.429443,548.607605 426.945465,548.745544 
	C421.390228,548.863831 416.761200,551.779419 415.671753,557.449402 
	C414.763885,562.174316 414.772644,567.374146 415.738739,572.083984 
	C416.921082,577.848083 421.964294,580.983459 427.504761,580.929871 
	C433.171417,580.875061 437.859772,577.796692 439.232483,571.984863 
	C440.197113,567.901001 439.746521,563.482910 439.734131,558.375244 
z"/>
<path fill="#F00C0B" opacity="1.000000" stroke="none" 
	d="
M167.368927,585.016907 
	C166.651428,585.779236 165.933945,586.541626 164.824219,587.678650 
	C164.287964,588.368896 164.143982,588.684448 164.000000,589.000000 
	C163.250000,589.000000 162.500000,589.000000 161.318909,588.660767 
	C157.529556,583.395508 154.146515,578.486084 150.820465,573.538391 
	C147.849426,569.118774 144.023865,566.992615 138.263092,568.630920 
	C138.263092,573.062805 138.336945,577.370605 138.245544,581.674805 
	C138.113007,587.916199 135.860825,589.330078 130.033081,586.970215 
	C129.999786,586.996338 130.060791,586.936401 130.021729,586.653809 
	C129.658096,585.913086 129.333557,585.454895 129.033951,584.528870 
	C128.971970,572.707153 128.885040,561.353333 128.798126,549.999512 
	C128.896790,548.650146 128.995438,547.300781 129.274506,545.425659 
	C129.682526,544.650391 129.764267,544.359741 129.700150,544.028076 
	C130.005386,543.752319 130.310638,543.476501 131.081070,542.956787 
	C131.787415,542.475403 132.028549,542.237976 132.269699,542.000488 
	C137.241394,541.989258 142.213074,541.978027 148.027954,541.967773 
	C151.240036,542.003723 153.608948,542.038574 156.175537,542.276306 
	C156.921738,542.560608 157.470230,542.642090 158.018738,542.723633 
	C158.186798,542.808716 158.354858,542.893799 158.889008,543.137268 
	C159.255096,543.295654 159.564178,543.484497 159.564178,543.484497 
	C159.564178,543.484497 159.921509,543.425659 159.921509,543.425659 
	C160.088623,543.571655 160.255737,543.717712 160.819214,544.126282 
	C161.400665,544.663696 161.654327,544.762268 161.976532,544.684509 
	C162.582733,545.336243 163.188934,545.988037 164.076538,547.046692 
	C164.497009,547.724976 164.717041,547.885498 165.017990,547.935120 
	C165.043930,548.142517 165.069870,548.349915 165.273361,549.002136 
	C165.543365,549.719666 165.729904,549.888611 166.010529,549.953735 
	C166.001511,550.136292 165.992508,550.318787 166.080688,551.192200 
	C166.155090,554.256470 166.132294,556.629944 166.109528,559.003357 
	C164.875046,560.616333 163.640549,562.229309 161.974274,564.104004 
	C161.269089,564.498352 161.103470,564.713745 161.045624,565.012085 
	C160.493515,565.198486 159.941406,565.384949 158.857574,565.787842 
	C157.566650,566.409790 156.807434,566.815247 155.708908,567.401917 
	C157.047043,568.405090 158.041260,569.150513 159.035492,569.895874 
	C159.988251,571.129822 160.941025,572.363770 162.149414,574.016602 
	C162.536713,574.694458 162.747345,574.836243 163.036957,574.860779 
	C163.316559,575.429016 163.596176,575.997192 164.096161,577.021362 
	C164.449768,577.771362 164.674026,577.953125 164.989319,578.022522 
	C165.007065,578.212341 165.024796,578.402222 165.215363,579.022095 
	C165.508041,579.728638 165.716400,579.893555 166.013229,579.946655 
	C166.026154,580.146423 166.039062,580.346252 166.207397,581.012451 
	C166.465179,581.781128 166.669327,581.977722 166.975250,582.068726 
	C166.975250,582.068726 166.946045,582.563599 167.031815,583.117676 
	C167.201370,584.120117 167.285156,584.568542 167.368927,585.016907 
M150.416306,561.163452 
	C154.347504,560.773743 157.309006,559.198547 156.946075,554.696960 
	C156.588974,550.267395 153.323364,549.114563 149.500473,549.041626 
	C145.900620,548.972900 142.298447,549.026855 138.520248,549.026855 
	C138.520248,553.342102 138.520248,557.086243 138.520248,561.254333 
	C142.362488,561.254333 145.970825,561.254333 150.416306,561.163452 
z"/>
<path fill="#F10908" opacity="1.000000" stroke="none" 
	d="
M221.652161,544.971130 
	C222.255081,544.017090 222.858002,543.062988 224.118698,541.840942 
	C226.530930,542.017822 228.285370,542.462585 230.039810,542.907349 
	C230.039810,542.907349 230.007370,542.976074 230.071533,543.257507 
	C230.433838,544.022705 230.731979,544.506470 231.030121,544.990234 
	C231.021088,546.712402 231.012054,548.434509 231.002808,551.007446 
	C231.052231,553.901367 231.101868,555.944580 231.105804,558.414612 
	C237.340424,559.181641 243.619644,559.560059 249.904541,559.738159 
	C250.189285,559.746155 250.525314,557.945312 250.910736,556.563477 
	C250.924744,554.426208 250.865463,552.712524 250.806183,550.998779 
	C250.883850,549.280884 250.961517,547.562988 251.180618,545.196777 
	C251.510651,544.021301 251.699265,543.494263 251.887878,542.967163 
	C252.163559,542.761353 252.439240,542.555481 253.267303,542.059387 
	C255.221939,541.742493 256.624207,541.715881 258.026489,541.689270 
	C258.690826,542.582153 259.355194,543.475037 260.115295,545.138794 
	C260.214325,558.944885 260.217621,571.980164 260.220917,585.015442 
	C259.896332,585.522644 259.571716,586.029846 258.776123,586.943604 
	C253.216644,588.619507 251.284775,587.441833 251.108185,582.570068 
	C250.929565,577.642090 251.068802,572.702515 251.068802,567.542542 
	C244.141983,567.542542 237.764938,567.542542 230.929855,567.542542 
	C230.929855,571.777466 230.703827,575.744385 230.993439,579.673279 
	C231.282776,583.598389 230.311905,586.736633 227.000000,589.000000 
	C226.250000,589.000000 225.500000,589.000000 224.395111,588.696228 
	C223.672058,587.973877 223.303879,587.555298 222.935699,587.136719 
	C222.935699,587.136719 222.949753,587.038696 222.852966,586.806885 
	C222.599884,586.265259 222.353714,586.067078 222.017670,585.980530 
	C222.010178,585.809875 222.002701,585.639221 221.904678,584.775146 
	C221.760147,571.044861 221.706146,558.007996 221.652161,544.971130 
z"/>
<path fill="#F01413" opacity="1.000000" stroke="none" 
	d="
M26.072540,550.994080 
	C25.964294,560.355774 25.898029,569.718201 25.717638,579.078491 
	C25.673744,581.356079 25.254639,583.626465 24.585526,586.457397 
	C19.052334,589.127380 16.541250,587.730164 16.226751,582.383423 
	C16.031914,579.071045 16.176369,575.738525 16.175247,572.415039 
	C16.172749,564.999451 16.174467,557.583801 16.174467,550.723633 
	C10.612657,549.725342 5.806326,548.862671 0.999998,548.000000 
	C1.000000,546.933289 1.000000,545.866638 1.312179,544.330994 
	C2.254165,543.299194 2.883972,542.736267 3.513780,542.173401 
	C3.854144,542.143860 4.194508,542.114258 5.228842,542.033875 
	C16.283642,541.936157 26.644470,541.889221 37.005299,541.842224 
	C37.728241,542.213684 38.451183,542.585205 39.535950,543.305420 
	C40.200962,544.126892 40.504147,544.599670 40.807327,545.072449 
	C40.745178,545.476257 40.683033,545.880005 40.441513,546.772461 
	C40.003872,547.782837 39.745605,548.304626 39.487343,548.826416 
	C35.613068,549.169556 31.738798,549.512756 27.143417,549.942688 
	C26.305719,550.350952 26.189129,550.672546 26.072540,550.994080 
z"/>
<path fill="#FFFFFF" opacity="1.000000" stroke="none" 
	d="
M128.443268,550.005493 
	C128.885040,561.353333 128.971970,572.707153 128.801208,584.701599 
	C129.049286,585.873596 129.555038,586.404968 130.060791,586.936401 
	C130.060791,586.936401 129.999786,586.996338 130.005524,587.311951 
	C130.007507,588.085022 130.003754,588.542542 130.000000,589.000000 
	C122.979050,589.000000 115.958107,589.000000 108.460258,588.619629 
	C107.944771,587.733582 107.906189,587.227966 107.943146,586.327820 
	C108.280243,583.837219 108.714973,581.745728 108.771194,579.644104 
	C108.946327,573.098083 108.978088,566.548340 109.065460,560.000000 
	C114.983917,559.326782 120.644073,558.293945 124.132591,552.515015 
	C124.853973,551.319946 126.739471,550.827576 128.443268,550.005493 
z"/>
<path fill="#FDF8F8" opacity="1.000000" stroke="none" 
	d="
M0.999998,548.468628 
	C5.806326,548.862671 10.612657,549.725342 16.174467,550.723633 
	C16.174467,557.583801 16.172749,564.999451 16.175247,572.415039 
	C16.176369,575.738525 16.031914,579.071045 16.226751,582.383423 
	C16.541250,587.730164 19.052334,589.127380 24.519577,586.851135 
	C24.912418,587.200989 24.948675,587.714478 24.992466,588.613953 
	C17.054241,589.000000 9.108481,589.000000 1.000000,589.000000 
	C1.000000,575.646118 1.000000,562.291748 0.999998,548.468628 
z"/>
<path fill="#FFEBEB" opacity="1.000000" stroke="none" 
	d="
M227.468658,589.000000 
	C230.311905,586.736633 231.282776,583.598389 230.993439,579.673279 
	C230.703827,575.744385 230.929855,571.777466 230.929855,567.542542 
	C237.764938,567.542542 244.141983,567.542542 251.068802,567.542542 
	C251.068802,572.702515 250.929565,577.642090 251.108185,582.570068 
	C251.284775,587.441833 253.216644,588.619507 258.670105,587.225464 
	C259.028900,587.522827 259.022675,587.944824 259.008240,588.683472 
	C248.645767,589.000000 238.291550,589.000000 227.468658,589.000000 
z"/>
<path fill="#FEF4F4" opacity="1.000000" stroke="none" 
	d="
M459.007172,587.301025 
	C464.494965,589.219604 466.791718,587.796204 466.871704,581.845154 
	C466.976105,574.079712 466.897278,566.311829 467.923859,558.129395 
	C471.614929,563.694275 475.225922,569.314514 479.021820,574.806885 
	C482.187042,579.386841 485.569092,583.817017 488.927551,588.656738 
	C479.312439,589.000000 469.624878,589.000000 459.468689,589.000000 
	C458.998138,588.546875 458.996246,588.093750 459.007172,587.301025 
z"/>
<path fill="#FEF0F0" opacity="1.000000" stroke="none" 
	d="
M398.038635,587.154907 
	C398.030975,587.564941 398.023346,587.974915 398.007843,588.692505 
	C386.312439,589.000000 374.624878,589.000000 362.468658,589.000000 
	C361.988953,588.576538 361.977905,588.153076 362.336670,587.536499 
	C368.017059,588.753601 369.889069,587.511597 370.030731,582.225037 
	C370.154083,577.621826 370.056427,573.012756 370.056427,568.477600 
	C376.969147,567.722290 379.089294,568.535156 382.423035,573.469727 
	C384.836487,577.042175 387.005096,580.780518 389.268433,584.453796 
	C391.407349,587.925110 394.180389,589.289429 398.038635,587.154907 
z"/>
<path fill="#FFF1F1" opacity="1.000000" stroke="none" 
	d="
M130.468658,589.000000 
	C130.003754,588.542542 130.007507,588.085022 130.038834,587.285767 
	C135.860825,589.330078 138.113007,587.916199 138.245544,581.674805 
	C138.336945,577.370605 138.263092,573.062805 138.263092,568.630920 
	C144.023865,566.992615 147.849426,569.118774 150.820465,573.538391 
	C154.146515,578.486084 157.529556,583.395508 160.943909,588.660767 
	C150.979111,589.000000 140.958206,589.000000 130.468658,589.000000 
z"/>
<path fill="#FEF4F4" opacity="1.000000" stroke="none" 
	d="
M213.907318,586.798340 
	C213.934631,587.287292 213.961945,587.776245 213.994629,588.632568 
	C200.645767,589.000000 187.291550,589.000000 173.468658,589.000000 
	C172.998795,588.546570 172.997604,588.093140 173.369736,587.429810 
	C178.283966,589.817688 180.350250,587.011963 181.221481,583.285461 
	C182.515518,577.750732 185.615189,575.664307 191.094437,576.707520 
	C192.051849,576.889709 193.095871,576.870728 194.061905,576.712646 
	C200.001770,575.740417 204.019531,577.225220 205.540131,583.871216 
	C206.556244,588.312378 209.849213,589.427246 213.907318,586.798340 
z"/>
<path fill="#FFFFFF" opacity="1.000000" stroke="none" 
	d="
M28.464651,589.000000 
	C34.217224,581.747070 31.476723,573.007446 31.973507,564.816040 
	C32.140881,562.056152 32.000000,559.277588 32.000000,556.040405 
	C35.959766,556.879395 38.368134,557.976135 39.191792,561.752991 
	C40.324932,566.948914 40.518082,571.816101 38.011459,576.756226 
	C37.423664,577.914612 38.481266,580.049988 39.069420,581.628845 
	C39.906620,583.876221 41.009571,586.024658 41.999496,588.607666 
	C37.643101,589.000000 33.286201,589.000000 28.464651,589.000000 
z"/>
<path fill="#FABCBB" opacity="1.000000" stroke="none" 
	d="
M274.468658,589.000000 
	C273.978455,588.621948 273.956909,588.243958 274.396179,587.516724 
	C284.265991,587.217224 293.674988,587.266907 303.083984,587.316589 
	C303.042114,587.689819 303.000244,588.063049 302.979187,588.718140 
	C293.645782,589.000000 284.291534,589.000000 274.468658,589.000000 
z"/>
<path fill="#FDF8F8" opacity="1.000000" stroke="none" 
	d="
M80.011292,587.048645 
	C80.008789,587.482300 80.006279,587.915894 80.001892,588.674805 
	C72.312424,589.000000 64.624847,589.000000 56.469589,588.751465 
	C56.100002,588.177185 56.111469,587.848511 56.501724,587.500488 
	C63.980724,587.498352 70.994316,587.512573 78.129669,587.662354 
	C78.509689,587.617554 78.767952,587.437256 79.261749,587.154114 
	C79.668617,587.050354 79.839958,587.049500 80.011292,587.048645 
z"/>
<path fill="#FF6867" opacity="1.000000" stroke="none" 
	d="
M496.500000,589.000000 
	C495.984589,574.301086 495.969177,559.602234 496.243439,544.459045 
	C496.533112,544.014771 497.000000,544.000000 497.000000,544.000000 
	C497.000000,559.000000 497.000000,574.000000 496.500000,589.000000 
z"/>
<path fill="#FABCBB" opacity="1.000000" stroke="none" 
	d="
M317.468292,589.000000 
	C316.976501,588.626160 316.953003,588.252380 317.391632,587.526245 
	C323.929535,587.211670 330.005280,587.249329 336.081055,587.286987 
	C336.037720,587.666992 335.994415,588.047058 335.975555,588.713501 
	C329.978851,589.000000 323.957703,589.000000 317.468292,589.000000 
z"/>
<path fill="#FDF8F8" opacity="1.000000" stroke="none" 
	d="
M107.867599,586.722290 
	C107.906189,587.227966 107.944771,587.733582 107.991684,588.619629 
	C105.629440,589.000000 103.258888,589.000000 100.444168,589.000000 
	C100.020020,588.489380 100.040047,587.978821 100.451691,587.242371 
	C103.184731,586.918457 105.526169,586.820374 107.867599,586.722290 
z"/>
<path fill="#FCCCCB" opacity="1.000000" stroke="none" 
	d="
M56.036316,587.516785 
	C56.111469,587.848511 56.100002,588.177185 56.000954,588.751465 
	C54.933399,589.000000 53.866795,589.000000 52.263359,588.770142 
	C51.133644,588.155823 50.540771,587.771362 50.379772,587.318665 
	C52.553204,587.339233 54.294762,587.428040 56.036316,587.516785 
z"/>
<path fill="#FDF8F8" opacity="1.000000" stroke="none" 
	d="
M49.947906,587.386841 
	C50.540771,587.771362 51.133644,588.155823 51.863258,588.770142 
	C50.611111,589.000000 49.222221,589.000000 47.416664,589.000000 
	C46.998894,588.560242 46.997791,588.120544 47.280766,587.344238 
	C47.753162,586.978271 47.941479,586.948730 48.442184,586.958740 
	C49.152351,587.127747 49.550133,587.257263 49.947906,587.386841 
z"/>
<path fill="#FEF4F4" opacity="1.000000" stroke="none" 
	d="
M497.000000,543.666687 
	C497.000000,544.000000 496.533112,544.014771 496.301147,543.991333 
	C495.783722,543.487000 495.498260,543.006042 495.131622,542.254883 
	C495.483643,541.988098 495.916809,541.991516 496.674988,541.997437 
	C497.000000,542.444458 497.000000,542.888916 497.000000,543.666687 
z"/>
<path fill="#FDF8F8" opacity="1.000000" stroke="none" 
	d="
M3.096211,542.121704 
	C2.883972,542.736267 2.254165,543.299194 1.312179,543.931030 
	C1.000000,543.555542 1.000000,543.111084 0.999999,542.333313 
	C1.559547,542.023376 2.119095,542.046753 3.096211,542.121704 
z"/>
<path fill="#FFEBEB" opacity="1.000000" stroke="none" 
	d="
M222.944000,587.447388 
	C223.303879,587.555298 223.672058,587.973877 224.020111,588.696228 
	C224.000000,589.000000 223.500000,589.000000 223.250000,589.000000 
	C222.984100,588.585999 222.968216,588.172058 222.944000,587.447388 
z"/>
<path fill="#FEF4F4" opacity="1.000000" stroke="none" 
	d="
M164.250000,589.000000 
	C164.143982,588.684448 164.287964,588.368896 164.694946,587.980103 
	C164.971176,588.088745 164.984421,588.270691 164.998840,588.726318 
	C165.000000,589.000000 164.500000,589.000000 164.250000,589.000000 
z"/>
<path fill="#04AF4E" opacity="1.000000" stroke="none" 
	d="
M261.664398,116.765564 
	C267.742950,118.482887 273.901123,119.558968 279.063965,122.426918 
	C284.631683,125.519791 287.190338,131.366547 287.401978,137.939056 
	C287.556519,142.738083 287.762909,147.535446 287.961304,153.217651 
	C287.937622,154.765274 287.864868,155.428802 287.864807,156.092331 
	C287.859283,213.682648 287.857849,271.272949 287.868805,328.863281 
	C287.869049,330.189819 288.014038,331.516388 287.995575,333.313599 
	C287.957214,350.868134 288.014771,367.951996 288.072327,385.035828 
	C274.985718,399.447906 260.527252,400.780670 245.778412,389.139984 
	C242.892197,386.862030 241.795135,384.426147 241.801910,380.702820 
	C241.919891,315.887238 241.886459,251.071396 241.886002,186.255600 
	C241.885986,184.281509 241.885986,182.307419 241.885986,179.356598 
	C239.558273,180.565140 237.842804,181.370728 236.208557,182.316650 
	C176.719284,216.750168 117.221596,251.169220 57.799854,285.718933 
	C54.678524,287.533752 52.214718,287.565948 49.065426,286.139038 
	C34.705486,279.632446 27.699404,267.280762 30.202971,251.810715 
	C30.480122,250.098175 32.342918,248.170395 33.979786,247.218430 
	C80.162315,220.359253 126.412064,193.615646 172.647156,166.846832 
	C197.421417,152.503281 222.158279,138.094589 246.987274,123.846466 
	C251.575409,121.213570 256.523682,119.208282 261.664398,116.765564 
z"/>
<path fill="#FEC004" opacity="1.000000" stroke="none" 
	d="
M288.402283,384.928833 
	C288.014771,367.951996 287.957214,350.868134 288.318726,333.232178 
	C324.096771,312.133331 359.467926,291.607635 394.809052,271.030365 
	C410.892548,261.665833 426.916718,252.199356 442.967773,242.779144 
	C446.157715,241.058533 449.364380,239.368088 452.534668,237.612061 
	C466.451385,229.903641 478.960938,233.384750 487.152771,247.878967 
	C487.831848,249.950363 488.341705,251.361526 488.851562,252.772705 
	C488.869934,260.434509 488.903809,268.096283 488.904266,275.758087 
	C488.908417,348.590057 488.907135,421.421997 488.906830,494.253967 
	C488.906769,509.663879 470.560791,521.236633 456.866119,514.008362 
	C452.143127,511.515533 448.157501,507.388367 444.370972,503.487549 
	C443.050323,502.127045 442.955475,499.202118 442.953064,496.990906 
	C442.882599,432.325531 442.894714,367.660065 442.893646,302.994629 
	C442.893616,301.042969 442.893646,299.091339 442.893646,295.571198 
	C390.784943,325.739166 339.758575,355.280487 288.402283,384.928833 
z"/>
<path fill="#F1100F" opacity="1.000000" stroke="none" 
	d="
M336.429077,587.209167 
	C330.005280,587.249329 323.929535,587.211670 317.384735,587.242981 
	C315.693573,585.559265 313.465088,583.835938 313.412811,582.049011 
	C313.077606,570.590454 313.187439,559.117859 313.227142,547.650146 
	C313.237488,544.665161 314.572144,542.167175 317.788391,542.159729 
	C324.743744,542.143616 331.813721,541.899109 338.609039,543.069946 
	C342.117493,543.674377 345.783844,546.543091 348.254547,549.370972 
	C354.704926,556.753784 355.321747,577.640686 343.073486,584.976807 
	C342.297913,585.391479 342.069916,585.636292 341.841949,585.881042 
	C341.435852,585.977905 341.029724,586.074707 340.117432,586.266235 
	C339.281860,586.434753 339.046936,586.625122 338.906525,586.932129 
	C338.196716,586.998535 337.486938,587.064941 336.429077,587.209167 
M343.088165,564.499207 
	C342.730499,551.606628 337.398499,547.631287 323.117859,549.840820 
	C323.117859,559.800842 323.117859,569.798828 323.117859,579.757568 
	C338.182556,581.294067 342.479279,578.139587 343.088165,564.499207 
z"/>
<path fill="#F00B0A" opacity="1.000000" stroke="none" 
	d="
M398.037537,587.099976 
	C394.180389,589.289429 391.407349,587.925110 389.268433,584.453796 
	C387.005096,580.780518 384.836487,577.042175 382.423035,573.469727 
	C379.089294,568.535156 376.969147,567.722290 370.056427,568.477600 
	C370.056427,573.012756 370.154083,577.621826 370.030731,582.225037 
	C369.889069,587.511597 368.017059,588.753601 362.340240,587.218872 
	C361.598328,585.966125 361.222748,584.837952 360.832947,582.906006 
	C360.761139,570.394043 360.703552,558.685974 360.645935,546.977844 
	C361.260345,545.680664 361.874756,544.383423 362.980377,542.848877 
	C363.780243,542.530212 363.981201,542.336853 364.074402,542.031494 
	C371.676605,542.082947 379.278839,542.134399 387.470764,542.321289 
	C388.060486,542.456665 388.494293,542.601440 388.494293,542.601440 
	C388.494293,542.601440 388.942932,542.512756 388.942932,542.512756 
	C389.379425,542.677185 389.815948,542.841553 390.710663,543.201050 
	C391.168884,543.396179 391.532074,543.634277 391.532074,543.634277 
	C391.532074,543.634277 391.965485,543.607178 391.965485,543.607178 
	C392.476532,544.005005 392.987579,544.402893 393.877808,545.105774 
	C394.438202,545.699829 394.699371,545.841675 395.040497,545.836304 
	C395.634827,546.725098 396.229156,547.613831 397.003723,549.029968 
	C397.409851,549.819275 397.635803,550.081299 397.861755,550.343262 
	C397.890137,550.719604 397.918518,551.095886 398.010803,552.146851 
	C398.124786,554.218506 398.174866,555.615540 398.224945,557.012512 
	C398.111908,557.409668 397.998901,557.806824 397.700500,558.636841 
	C397.289459,559.337891 397.228516,559.639282 397.332306,559.973938 
	C396.675751,560.869568 396.019196,561.765198 394.989075,562.988831 
	C394.330841,563.475342 394.182404,563.717407 394.170166,564.042969 
	C393.609070,564.335999 393.047943,564.629028 391.998108,565.107544 
	C391.184906,565.403198 390.980804,565.624329 390.897034,565.956482 
	C390.897034,565.956482 390.416412,565.952759 389.877625,566.074158 
	C386.150726,567.885498 388.939758,568.301575 389.956818,569.095276 
	C390.921387,570.262512 391.885956,571.429810 393.108337,573.016174 
	C393.508942,573.707336 393.733978,573.842773 394.041290,573.841614 
	C394.347534,574.410583 394.653809,574.979614 395.179199,575.992310 
	C395.524536,576.705811 395.735870,576.855408 396.032318,576.884705 
	C396.596985,578.081665 397.161652,579.278687 397.917908,581.020386 
	C398.412537,582.041504 398.715607,582.517883 399.018677,582.994324 
	C399.000916,583.735046 398.983154,584.475769 398.754578,585.699097 
	C398.272369,586.406677 398.139893,586.695251 398.146301,587.047607 
	C398.146301,587.047607 398.036407,587.044983 398.037537,587.099976 
M375.561859,548.985901 
	C373.814178,548.985901 372.066498,548.985901 370.338287,548.985901 
	C370.338287,553.465698 370.338287,557.208923 370.338287,561.581116 
	C375.052490,561.354919 379.603058,561.670288 383.857147,560.693848 
	C385.807922,560.246094 388.571716,557.164673 388.454437,555.449524 
	C388.308563,553.316650 385.938782,550.664856 383.832886,549.531921 
	C381.860687,548.470947 378.979279,549.100037 375.561859,548.985901 
z"/>
<path fill="#EF1110" opacity="1.000000" stroke="none" 
	d="
M303.418549,587.177673 
	C293.674988,587.266907 284.265991,587.217224 274.386932,587.230713 
	C272.699829,585.186707 270.502014,583.112183 270.430969,580.967163 
	C270.072845,570.154968 270.280121,559.324341 270.265350,548.500183 
	C270.259613,544.308167 271.964569,541.916931 276.496002,541.964722 
	C284.321838,542.047302 292.159088,541.775391 299.968231,542.145142 
	C301.708191,542.227600 303.351379,544.353149 305.039124,545.538025 
	C303.393066,546.736145 301.805817,548.858521 300.090424,548.967651 
	C293.642059,549.378113 287.151947,549.132263 280.250977,549.132263 
	C280.250977,552.783142 280.250977,556.147339 280.250977,560.188721 
	C284.970245,560.188721 289.736115,560.182373 294.501984,560.192200 
	C296.166534,560.195679 298.063080,559.748535 299.432953,560.396545 
	C300.924652,561.102173 301.927612,562.841003 303.143646,564.129456 
	C301.867615,565.151611 300.631989,566.991394 299.308655,567.056946 
	C293.019379,567.368103 286.706177,567.195984 280.113403,567.195984 
	C280.113403,571.552490 280.113403,575.483643 280.113403,580.111206 
	C287.083679,580.111206 294.018707,579.970642 300.939850,580.218689 
	C302.498993,580.274536 304.682007,581.338440 305.325104,582.584778 
	C305.819916,583.543701 304.349579,585.516663 303.418549,587.177673 
z"/>
<path fill="#EF0D0C" opacity="1.000000" stroke="none" 
	d="
M50.379784,587.318604 
	C49.550133,587.257263 49.152351,587.127747 48.340145,586.718140 
	C47.628876,586.273315 47.332035,586.108521 47.035187,585.943665 
	C46.693802,584.851807 46.352417,583.760010 45.998459,581.875916 
	C45.922279,570.386719 45.858673,559.689697 45.795067,548.992737 
	C45.901863,547.990173 46.008659,546.987610 46.356155,545.473633 
	C46.671936,544.632568 46.747017,544.303040 46.822098,543.973450 
	C47.100014,543.692749 47.377934,543.412109 48.082710,542.905762 
	C48.845848,542.597412 49.063168,542.390076 49.161518,542.058105 
	C49.576565,542.052795 49.991608,542.047485 51.162315,542.014160 
	C60.281006,541.928162 68.644035,541.870178 77.007065,541.812195 
	C78.073784,542.457214 79.140503,543.102234 80.464478,544.261353 
	C80.512718,545.859741 80.303688,546.943970 80.094650,548.028259 
	C78.965759,548.396545 77.836868,548.764832 75.898972,549.134888 
	C68.655914,549.136719 62.221859,549.136719 55.699203,549.136719 
	C55.699203,553.128174 55.699203,556.503052 55.699203,559.941956 
	C61.727116,559.941956 67.364845,559.941956 73.002571,559.941956 
	C73.711868,560.033325 74.421173,560.124756 75.609024,560.319214 
	C76.087570,560.422363 76.498756,560.584473 76.498756,560.584473 
	C76.498756,560.584473 76.940018,560.559326 76.940018,560.559326 
	C79.925133,563.379395 79.944260,565.652588 74.908493,567.180481 
	C68.006607,567.216431 61.922119,567.216431 55.722382,567.216431 
	C55.722382,571.820435 55.722382,575.830383 55.722382,579.938660 
	C63.426884,579.938660 70.714661,579.938660 78.002434,579.938660 
	C78.002434,579.938660 78.368378,580.168213 78.707420,580.327515 
	C79.319298,580.697144 79.624565,580.768372 79.962280,580.700500 
	C80.226158,580.983276 80.490028,581.266113 80.934647,582.148438 
	C81.203995,583.502869 81.292603,584.257690 81.381210,585.012573 
	C81.028206,585.514221 80.675194,586.015930 80.166740,586.783081 
	C79.839958,587.049500 79.668617,587.050354 78.982788,587.129517 
	C78.314827,587.314087 78.161369,587.420410 78.007904,587.526794 
	C70.994316,587.512573 63.980724,587.498352 56.501724,587.500488 
	C54.294762,587.428040 52.553204,587.339233 50.379784,587.318604 
z"/>
<path fill="#F00E0D" opacity="1.000000" stroke="none" 
	d="
M213.960861,586.551819 
	C209.849213,589.427246 206.556244,588.312378 205.540131,583.871216 
	C204.019531,577.225220 200.001770,575.740417 194.061905,576.712646 
	C193.095871,576.870728 192.051849,576.889709 191.094437,576.707520 
	C185.615189,575.664307 182.515518,577.750732 181.221481,583.285461 
	C180.350250,587.011963 178.283966,589.817688 173.380615,587.089966 
	C172.712067,585.583008 172.405960,584.205994 172.260147,582.353699 
	C172.634079,581.631531 172.687149,581.353943 172.579636,581.045654 
	C173.046219,579.932129 173.512802,578.818604 174.168488,577.251282 
	C174.587692,576.590027 174.646072,576.342102 174.532745,576.053711 
	C175.010040,574.932190 175.487320,573.810608 176.157013,572.237366 
	C176.581802,571.584167 176.641724,571.340332 176.529175,571.054077 
	C176.721756,570.624084 176.914322,570.194092 177.374084,569.240723 
	C177.760727,568.148376 177.880188,567.579407 177.999634,567.010437 
	C178.361099,566.283142 178.722580,565.555786 179.292999,564.391174 
	C179.746780,563.683289 179.809875,563.375427 179.691238,563.030273 
	C179.791504,562.866577 179.891785,562.702881 180.171265,562.163391 
	C180.577530,561.583252 180.633423,561.339661 180.518127,561.056824 
	C180.698425,560.655334 180.878738,560.253845 181.276947,559.398193 
	C181.742645,558.678101 181.806488,558.373657 181.686386,558.030640 
	C181.786850,557.865234 181.887314,557.699829 182.166046,557.157898 
	C182.569687,556.579529 182.625687,556.338379 182.512329,556.057861 
	C182.695297,555.658020 182.878265,555.258240 183.277252,554.401306 
	C183.737396,553.677673 183.801712,553.373169 183.686172,553.030701 
	C183.787445,552.865356 183.888702,552.700073 184.165710,552.157104 
	C184.564209,551.577942 184.619751,551.337830 184.508057,551.059082 
	C184.691010,550.655212 184.873978,550.251343 185.270493,549.390625 
	C185.729538,548.671265 185.792267,548.370544 185.672211,548.031677 
	C186.077026,547.237061 186.481857,546.442444 187.140839,545.136353 
	C187.658569,544.110046 187.922119,543.595276 188.185669,543.080505 
	C190.199142,542.463928 192.212616,541.847412 194.780914,541.396667 
	C195.884216,541.718811 196.432724,541.875122 196.981201,542.031494 
	C197.990479,543.513672 198.999741,544.995850 200.187653,546.978516 
	C200.467621,547.780518 200.670151,547.978394 200.973877,548.072815 
	C201.320007,549.195190 201.666153,550.317566 202.186096,551.960022 
	C202.462006,552.783752 202.667023,552.979858 202.974945,553.068420 
	C202.970963,553.240784 202.966995,553.413147 203.079544,554.069336 
	C203.424286,554.804260 203.652512,555.055237 203.880722,555.306274 
	C203.880722,555.306274 203.852356,555.704834 203.977631,556.189209 
	C204.703461,557.859924 205.304031,559.046265 205.904587,560.232666 
	C205.904587,560.232666 205.882263,560.662964 206.007507,561.160034 
	C206.722427,562.809692 207.312119,563.962280 207.901794,565.114807 
	C207.901794,565.114807 207.985336,565.020935 207.918335,565.341919 
	C208.127991,566.147217 208.404663,566.631470 208.681335,567.115723 
	C208.790085,567.558960 208.898819,568.002197 209.166946,568.967041 
	C209.427032,569.808838 209.640549,570.008240 209.966904,570.086853 
	C210.322250,571.202026 210.677612,572.317139 211.199097,573.950928 
	C211.469025,574.768799 211.675430,574.953003 211.984467,575.022217 
	C211.984467,575.022217 212.001434,575.002441 211.974609,575.304565 
	C212.238571,576.092834 212.529343,576.578918 212.820129,577.065063 
	C212.905960,577.527588 212.991791,577.990051 213.249542,578.954407 
	C213.518784,579.738953 213.713333,579.913208 214.005096,579.978882 
	C213.999359,580.158813 213.993622,580.338745 214.087036,581.033386 
	C214.439758,582.037964 214.693298,582.527954 214.946838,583.017883 
	C214.900894,583.424683 214.854950,583.831543 214.690338,584.669678 
	C214.371170,585.355469 214.306854,585.640564 214.378754,585.956360 
	C214.257309,586.072693 214.135849,586.189026 213.960861,586.551819 
M191.536926,555.266785 
	C189.892776,559.888245 188.248627,564.509705 186.445282,569.578674 
	C191.281128,569.578674 195.335358,569.578674 200.003922,569.578674 
	C197.791122,563.590027 195.725555,557.999817 193.343933,551.554260 
	C192.522507,553.186646 192.169281,553.888611 191.536926,555.266785 
z"/>
<path fill="#F01413" opacity="1.000000" stroke="none" 
	d="
M107.943146,586.327820 
	C105.526169,586.820374 103.184731,586.918457 100.492599,586.861267 
	C99.824165,579.266724 99.457726,571.829163 99.208885,564.387573 
	C99.081177,560.568176 99.163429,556.741699 99.120026,552.031006 
	C96.392136,550.783020 93.695015,550.422485 90.997894,550.061951 
	C89.135391,549.521790 87.272888,548.981628 85.115341,547.932800 
	C84.784454,546.278381 84.748619,545.132690 84.712791,543.987000 
	C85.915901,543.326172 87.119011,542.665344 89.119400,541.984436 
	C99.613754,541.906433 109.310829,541.848572 119.007896,541.790649 
	C120.293983,542.367432 121.580063,542.944153 123.099678,544.030273 
	C123.372459,544.901855 123.558273,545.157593 123.890656,545.306824 
	C123.342026,548.779785 121.045181,549.867493 117.842018,549.813599 
	C115.520485,549.774475 113.197250,549.836121 110.151108,549.936829 
	C109.318153,550.344543 109.208878,550.668274 109.099602,550.992004 
	C109.014832,553.701416 108.930061,556.410889 108.955376,559.560181 
	C108.978088,566.548340 108.946327,573.098083 108.771194,579.644104 
	C108.714973,581.745728 108.280243,583.837219 107.943146,586.327820 
z"/>
<path fill="#E33D3B" opacity="1.000000" stroke="none" 
	d="
M488.882874,243.595764 
	C488.502319,242.626221 488.016754,241.197113 488.015961,239.767761 
	C487.977386,168.877792 487.979523,97.987808 487.988953,27.097820 
	C487.989075,26.274643 488.142456,25.451487 488.472656,24.293821 
	C488.829956,24.944378 489.034180,25.929436 489.034180,26.914492 
	C489.034454,98.988365 489.018585,171.062241 488.882874,243.595764 
z"/>
<path fill="#FFFEFE" opacity="1.000000" stroke="none" 
	d="
M231.151505,557.987671 
	C231.101868,555.944580 231.052231,553.901367 231.092651,551.428589 
	C237.420044,550.999207 243.657379,550.999512 250.350433,550.999268 
	C250.865463,552.712524 250.924744,554.426208 250.467239,556.567993 
	C243.684128,557.326599 237.417816,557.657166 231.151505,557.987671 
z"/>
<path fill="#FDF8F8" opacity="1.000000" stroke="none" 
	d="
M45.392105,549.013916 
	C45.858673,559.689697 45.922279,570.386719 45.896492,581.545288 
	C44.872837,581.002869 43.151489,580.017212 43.127537,578.991882 
	C42.916206,569.943604 42.948231,560.887390 43.094296,551.836487 
	C43.109520,550.892700 44.328613,549.968384 45.392105,549.013916 
z"/>
<path fill="#FDF8F8" opacity="1.000000" stroke="none" 
	d="
M36.941498,541.460449 
	C26.644470,541.889221 16.283642,541.936157 5.458690,541.910889 
	C6.130198,540.895874 7.244343,539.167603 8.404892,539.135864 
	C16.872843,538.904297 25.351469,538.943420 33.822701,539.106323 
	C34.853283,539.126099 35.859943,540.390869 36.941498,541.460449 
z"/>
<path fill="#FDF8F8" opacity="1.000000" stroke="none" 
	d="
M118.986252,541.388062 
	C109.310829,541.848572 99.613754,541.906433 89.454361,541.878784 
	C89.997948,540.863708 90.982407,539.156616 92.013176,539.128113 
	C100.059685,538.906189 108.116310,538.941833 116.166069,539.095032 
	C117.110565,539.112976 118.032310,540.326233 118.986252,541.388062 
z"/>
<path fill="#FFEBEB" opacity="1.000000" stroke="none" 
	d="
M221.283768,545.097534 
	C221.706146,558.007996 221.760147,571.044861 221.781586,584.550415 
	C221.172058,584.168762 220.100098,583.322693 220.092804,582.467590 
	C219.991562,570.612061 220.024521,558.755249 220.082306,546.899048 
	C220.085037,546.339355 220.625397,545.782227 221.283768,545.097534 
z"/>
<path fill="#FFEBEB" opacity="1.000000" stroke="none" 
	d="
M260.600037,584.904419 
	C260.217621,571.980164 260.214325,558.944885 260.262756,545.442139 
	C260.871094,545.843384 261.905365,546.708313 261.912140,547.581238 
	C262.004547,559.446228 261.967194,571.312378 261.899109,583.177856 
	C261.896027,583.718079 261.299377,584.254944 260.600037,584.904419 
z"/>
<path fill="#FDF8F8" opacity="1.000000" stroke="none" 
	d="
M76.986298,541.408203 
	C68.644035,541.870178 60.281006,541.928162 51.455502,541.901733 
	C51.826244,540.883179 52.635227,539.165222 53.496502,539.138550 
	C60.551846,538.920471 67.618217,538.955933 74.677177,539.105713 
	C75.453041,539.122131 76.203369,540.342285 76.986298,541.408203 
z"/>
<path fill="#FEF0F0" opacity="1.000000" stroke="none" 
	d="
M360.278992,547.106567 
	C360.703552,558.685974 360.761139,570.394043 360.720581,582.563110 
	C360.084839,582.129333 359.088409,581.239075 359.079834,580.339294 
	C358.980042,569.868652 359.015686,559.396606 359.076080,548.925232 
	C359.079346,548.360291 359.621002,547.798462 360.278992,547.106567 
z"/>
<path fill="#FEF4F4" opacity="1.000000" stroke="none" 
	d="
M487.426697,547.103638 
	C487.869019,552.691528 487.930481,558.388916 487.898254,564.546265 
	C487.369171,564.797180 486.550232,564.580627 486.554199,564.380310 
	C486.667480,558.656921 486.863373,552.935120 487.426697,547.103638 
z"/>
<path fill="#FFEBEB" opacity="1.000000" stroke="none" 
	d="
M230.036987,542.543335 
	C228.285370,542.462585 226.530930,542.017822 224.370087,541.609375 
	C224.621582,540.529175 225.279465,539.412537 225.937332,538.295959 
	C227.302948,539.590393 228.668564,540.884888 230.036987,542.543335 
z"/>
<path fill="#FFFEFE" opacity="1.000000" stroke="none" 
	d="
M155.977844,542.073486 
	C153.608948,542.038574 151.240036,542.003723 148.436234,541.876709 
	C150.961060,541.292053 153.920792,540.799377 156.711761,540.770264 
	C156.354630,541.513672 156.166229,541.793579 155.977844,542.073486 
z"/>
<path fill="#FEF4F4" opacity="1.000000" stroke="none" 
	d="
M166.479401,558.915222 
	C166.132294,556.629944 166.155090,554.256470 166.204330,551.436890 
	C169.367386,553.371521 168.404037,556.075989 166.479401,558.915222 
z"/>
<path fill="#FDF8F8" opacity="1.000000" stroke="none" 
	d="
M84.314636,543.988281 
	C84.748619,545.132690 84.784454,546.278381 84.823723,547.715820 
	C83.512611,548.011414 82.198074,548.015320 80.489090,548.023743 
	C80.303688,546.943970 80.512718,545.859741 80.727402,544.438049 
	C81.794205,544.063660 82.855339,544.026611 84.314636,543.988281 
z"/>
<path fill="#FEF4F4" opacity="1.000000" stroke="none" 
	d="
M457.467773,550.079834 
	C457.881195,551.716858 457.944519,553.440063 457.911438,555.584900 
	C454.735321,554.399658 455.687317,552.311340 457.467773,550.079834 
z"/>
<path fill="#FEF4F4" opacity="1.000000" stroke="none" 
	d="
M457.474335,576.072144 
	C457.881256,577.390930 457.945801,578.788208 457.914307,580.595947 
	C457.589508,579.387756 457.360718,577.769226 457.474335,576.072144 
z"/>
<path fill="#FFFEFE" opacity="1.000000" stroke="none" 
	d="
M148.547058,536.875671 
	C147.315857,536.819946 146.428360,536.689880 145.540878,536.559814 
	C145.776291,536.102356 146.011703,535.644958 146.247131,535.187561 
	C147.128342,535.725525 148.009552,536.263428 148.547058,536.875671 
z"/>
<path fill="#FEF0F0" opacity="1.000000" stroke="none" 
	d="
M398.564453,556.931396 
	C398.174866,555.615540 398.124786,554.218506 398.133057,552.405396 
	C398.428925,553.609680 398.666443,555.229980 398.564453,556.931396 
z"/>
<path fill="#FFEBEB" opacity="1.000000" stroke="none" 
	d="
M257.939117,541.352783 
	C256.624207,541.715881 255.221939,541.742493 253.395172,541.832275 
	C254.597687,541.602356 256.224701,541.309265 257.939117,541.352783 
z"/>
<path fill="#E33D3B" opacity="1.000000" stroke="none" 
	d="
M488.921814,252.357635 
	C488.341705,251.361526 487.831848,249.950363 487.283112,248.200562 
	C487.610748,247.320053 487.977295,246.778198 488.551941,246.091522 
	C488.837372,247.945328 488.914703,249.943939 488.921814,252.357635 
z"/>
<path fill="#FEF4F4" opacity="1.000000" stroke="none" 
	d="
M159.031738,569.508667 
	C158.041260,569.150513 157.047043,568.405090 155.708908,567.401917 
	C156.807434,566.815247 157.566650,566.409790 158.664062,566.014038 
	C159.010818,567.056274 159.019394,568.088867 159.031738,569.508667 
z"/>
<path fill="#FEF4F4" opacity="1.000000" stroke="none" 
	d="
M487.487244,568.173096 
	C487.874023,569.301697 487.949707,570.584229 488.091400,572.984497 
	C486.722260,571.295471 485.982330,570.382690 485.224365,569.198608 
	C485.862946,568.727234 486.519531,568.527161 487.487244,568.173096 
z"/>
<path fill="#FEF4F4" opacity="1.000000" stroke="none" 
	d="
M207.939911,564.740234 
	C207.312119,563.962280 206.722427,562.809692 206.145279,561.325684 
	C206.764542,562.117981 207.371277,563.241882 207.939911,564.740234 
z"/>
<path fill="#FEF4F4" opacity="1.000000" stroke="none" 
	d="
M205.939697,559.847778 
	C205.304031,559.046265 204.703461,557.859924 204.114685,556.334473 
	C204.742584,557.151245 205.358688,558.307068 205.939697,559.847778 
z"/>
<path fill="#FFFEFE" opacity="1.000000" stroke="none" 
	d="
M138.539795,536.013000 
	C137.954437,536.412292 137.372635,536.510193 136.790817,536.608154 
	C136.795883,536.197205 136.800964,535.786316 136.806046,535.375366 
	C137.385147,535.487488 137.964249,535.599548 138.539795,536.013000 
z"/>
<path fill="#FEF0F0" opacity="1.000000" stroke="none" 
	d="
M389.973877,568.736206 
	C388.939758,568.301575 386.150726,567.885498 389.677795,566.207703 
	C390.008148,566.938904 389.999512,567.658020 389.973877,568.736206 
z"/>
<path fill="#FEF0F0" opacity="1.000000" stroke="none" 
	d="
M399.243408,582.832886 
	C398.715607,582.517883 398.412537,582.041504 398.132050,581.277283 
	C398.592438,581.550110 399.030273,582.110840 399.243408,582.832886 
z"/>
<path fill="#FEF4F4" opacity="1.000000" stroke="none" 
	d="
M215.179382,582.869934 
	C214.693298,582.527954 214.439758,582.037964 214.221283,581.267700 
	C214.641525,581.565552 215.026718,582.143799 215.179382,582.869934 
z"/>
<path fill="#FEF4F4" opacity="1.000000" stroke="none" 
	d="
M167.635406,584.963257 
	C167.285156,584.568542 167.201370,584.120117 167.157928,583.331055 
	C167.432831,583.630066 167.667374,584.269775 167.635406,584.963257 
z"/>
<path fill="#FEF4F4" opacity="1.000000" stroke="none" 
	d="
M213.075500,576.909973 
	C212.529343,576.578918 212.238571,576.092834 211.964371,575.310181 
	C212.430923,575.594055 212.880890,576.174500 213.075500,576.909973 
z"/>
<path fill="#FEF4F4" opacity="1.000000" stroke="none" 
	d="
M208.956848,566.966125 
	C208.404663,566.631470 208.127991,566.147217 207.863586,565.372803 
	C208.328018,565.660583 208.780182,566.238525 208.956848,566.966125 
z"/>
<path fill="#FEF4F4" opacity="1.000000" stroke="none" 
	d="
M177.698395,567.039368 
	C177.880188,567.579407 177.760727,568.148376 177.395172,568.884277 
	C177.231750,568.390198 177.314438,567.729248 177.698395,567.039368 
z"/>
<path fill="#FFF1F1" opacity="1.000000" stroke="none" 
	d="
M156.175537,542.276306 
	C156.166229,541.793579 156.354630,541.513672 156.771515,541.115662 
	C157.323883,541.394531 157.647766,541.791504 157.995193,542.456055 
	C157.470230,542.642090 156.921738,542.560608 156.175537,542.276306 
z"/>
<path fill="#FDF8F8" opacity="1.000000" stroke="none" 
	d="
M41.068493,544.904114 
	C40.504147,544.599670 40.200962,544.126892 39.833282,543.374390 
	C40.289078,543.641724 40.809364,544.188782 41.068493,544.904114 
z"/>
<path fill="#FEF4F4" opacity="1.000000" stroke="none" 
	d="
M466.929260,541.830139 
	C466.397736,541.951477 465.858154,541.763184 465.138123,541.350159 
	C465.612213,541.257141 466.266724,541.388855 466.929260,541.830139 
z"/>
<path fill="#FEF4F4" opacity="1.000000" stroke="none" 
	d="
M187.883041,543.077148 
	C187.922119,543.595276 187.658569,544.110046 187.160370,544.801575 
	C187.143951,544.343445 187.362183,543.708618 187.883041,543.077148 
z"/>
<path fill="#FFEBEB" opacity="1.000000" stroke="none" 
	d="
M231.254272,544.821777 
	C230.731979,544.506470 230.433838,544.022705 230.109360,543.253784 
	C230.548157,543.530151 231.013306,544.091736 231.254272,544.821777 
z"/>
<path fill="#FFEBEB" opacity="1.000000" stroke="none" 
	d="
M251.603302,542.997375 
	C251.699265,543.494263 251.510651,544.021301 251.139709,544.767822 
	C251.077820,544.333984 251.198273,543.680786 251.603302,542.997375 
z"/>
<path fill="#FEF4F4" opacity="1.000000" stroke="none" 
	d="
M196.957916,541.729126 
	C196.432724,541.875122 195.884216,541.718811 195.146667,541.344238 
	C195.616592,541.226257 196.275604,541.326538 196.957916,541.729126 
z"/>
<path fill="#FDF8F8" opacity="1.000000" stroke="none" 
	d="
M39.831760,548.852661 
	C39.745605,548.304626 40.003872,547.782837 40.488415,547.076965 
	C40.535187,547.554932 40.355682,548.216919 39.831760,548.852661 
z"/>
<path fill="#E33D3B" opacity="1.000000" stroke="none" 
	d="
M488.672974,21.729225 
	C488.340973,21.477932 488.118256,20.942427 487.991394,20.113970 
	C488.318909,20.362349 488.550598,20.903683 488.672974,21.729225 
z"/>
<path fill="#FEF4F4" opacity="1.000000" stroke="none" 
	d="
M162.984528,574.687866 
	C162.747345,574.836243 162.536713,574.694458 162.405945,574.238037 
	C162.645279,574.128601 162.820358,574.286743 162.984528,574.687866 
z"/>
<path fill="#FEF0F0" opacity="1.000000" stroke="none" 
	d="
M395.989075,576.703369 
	C395.735870,576.855408 395.524536,576.705811 395.402344,576.234375 
	C395.657013,576.117737 395.836853,576.280823 395.989075,576.703369 
z"/>
<path fill="#FEF4F4" opacity="1.000000" stroke="none" 
	d="
M174.383301,576.167114 
	C174.646072,576.342102 174.587692,576.590027 174.176544,576.887939 
	C173.987686,576.715942 174.067139,576.483276 174.383301,576.167114 
z"/>
<path fill="#FEF0F0" opacity="1.000000" stroke="none" 
	d="
M393.984253,573.661865 
	C393.733978,573.842773 393.508942,573.707336 393.358002,573.229736 
	C393.607819,573.094238 393.800262,573.246887 393.984253,573.661865 
z"/>
<path fill="#FEF4F4" opacity="1.000000" stroke="none" 
	d="
M211.956345,574.823120 
	C211.675430,574.953003 211.469025,574.768799 211.382935,574.255005 
	C211.657608,574.161621 211.833481,574.356201 211.956345,574.823120 
z"/>
<path fill="#FEF4F4" opacity="1.000000" stroke="none" 
	d="
M164.946808,577.817505 
	C164.674026,577.953125 164.449768,577.771362 164.320862,577.254272 
	C164.596008,577.147461 164.789047,577.341248 164.946808,577.817505 
z"/>
<path fill="#FEF4F4" opacity="1.000000" stroke="none" 
	d="
M165.973785,579.758240 
	C165.716400,579.893555 165.508041,579.728638 165.393616,579.245789 
	C165.651047,579.142090 165.829468,579.318848 165.973785,579.758240 
z"/>
<path fill="#FEF4F4" opacity="1.000000" stroke="none" 
	d="
M213.977142,579.791870 
	C213.713333,579.913208 213.518784,579.738953 213.439484,579.253906 
	C213.697922,579.167969 213.861816,579.352356 213.977142,579.791870 
z"/>
<path fill="#FEF4F4" opacity="1.000000" stroke="none" 
	d="
M166.950287,581.862305 
	C166.669327,581.977722 166.465179,581.781128 166.377655,581.259888 
	C166.655731,581.171753 166.833328,581.376709 166.950287,581.862305 
z"/>
<path fill="#FEF4F4" opacity="1.000000" stroke="none" 
	d="
M172.419403,581.180298 
	C172.687149,581.353943 172.634079,581.631531 172.231750,581.992676 
	C172.011078,581.814575 172.083130,581.550537 172.419403,581.180298 
z"/>
<path fill="#FEF4F4" opacity="1.000000" stroke="none" 
	d="
M214.547150,585.815308 
	C214.306854,585.640564 214.371170,585.355469 214.756256,584.971558 
	C214.975281,585.149109 214.900192,585.426514 214.547150,585.815308 
z"/>
<path fill="#FABCBB" opacity="1.000000" stroke="none" 
	d="
M342.105286,585.904297 
	C342.069916,585.636292 342.297913,585.391479 342.786682,585.158325 
	C342.821198,585.422485 342.594910,585.675049 342.105286,585.904297 
z"/>
<path fill="#FCCCCB" opacity="1.000000" stroke="none" 
	d="
M47.007908,586.212402 
	C47.332035,586.108521 47.628876,586.273315 48.027756,586.678711 
	C47.941479,586.948730 47.753162,586.978271 47.278706,587.014465 
	C46.988586,586.841187 46.984604,586.661133 47.007908,586.212402 
z"/>
<path fill="#FFEBEB" opacity="1.000000" stroke="none" 
	d="
M222.067184,586.217773 
	C222.353714,586.067078 222.599884,586.265259 222.803894,586.813477 
	C222.519089,586.960632 222.274109,586.761658 222.067184,586.217773 
z"/>
<path fill="#FABCBB" opacity="1.000000" stroke="none" 
	d="
M339.139099,586.986938 
	C339.046936,586.625122 339.281860,586.434753 339.839233,586.410950 
	C339.965576,586.810425 339.733734,587.004089 339.139099,586.986938 
z"/>
<path fill="#FEF0F0" opacity="1.000000" stroke="none" 
	d="
M398.356018,586.927734 
	C398.139893,586.695251 398.272369,586.406677 398.761566,586.069946 
	C398.960754,586.299438 398.822876,586.582642 398.356018,586.927734 
z"/>
<path fill="#FEF4F4" opacity="1.000000" stroke="none" 
	d="
M458.450806,544.176880 
	C458.694855,544.354248 458.632233,544.636536 458.239014,545.004883 
	C458.021210,544.821472 458.099792,544.551697 458.450806,544.176880 
z"/>
<path fill="#FEF4F4" opacity="1.000000" stroke="none" 
	d="
M488.515198,543.163513 
	C488.764313,543.361633 488.684448,543.650818 488.253937,544.012512 
	C488.032806,543.810547 488.127136,543.533752 488.515198,543.163513 
z"/>
<path fill="#FEF0F0" opacity="1.000000" stroke="none" 
	d="
M363.863861,542.044067 
	C363.981201,542.336853 363.780243,542.530212 363.254608,542.605530 
	C363.158356,542.322754 363.363586,542.141785 363.863861,542.044067 
z"/>
<path fill="#FEF4F4" opacity="1.000000" stroke="none" 
	d="
M184.365082,551.169861 
	C184.619751,551.337830 184.564209,551.577942 184.165833,551.866211 
	C183.985413,551.700562 184.062714,551.476440 184.365082,551.169861 
z"/>
<path fill="#FEF0F0" opacity="1.000000" stroke="none" 
	d="
M388.790192,542.356262 
	C388.942932,542.512756 388.494293,542.601440 388.494293,542.601440 
	C388.494293,542.601440 388.060486,542.456665 387.924255,542.272583 
	C388.086945,542.005249 388.370087,542.042358 388.790192,542.356262 
z"/>
<path fill="#FDF8F8" opacity="1.000000" stroke="none" 
	d="
M109.295990,550.895447 
	C109.208878,550.668274 109.318153,550.344543 109.710060,550.058105 
	C109.904030,550.385498 109.737259,550.619995 109.295990,550.895447 
z"/>
<path fill="#FDF8F8" opacity="1.000000" stroke="none" 
	d="
M26.273235,550.900635 
	C26.189129,550.672546 26.305719,550.350952 26.706882,550.066895 
	C26.897881,550.396790 26.725372,550.631042 26.273235,550.900635 
z"/>
<path fill="#FFF1F1" opacity="1.000000" stroke="none" 
	d="
M159.814850,543.299622 
	C159.921509,543.425659 159.564178,543.484497 159.564178,543.484497 
	C159.564178,543.484497 159.255096,543.295654 159.171539,543.134277 
	C159.318329,542.966858 159.525055,543.033752 159.814850,543.299622 
z"/>
<path fill="#FEF0F0" opacity="1.000000" stroke="none" 
	d="
M397.858276,550.080383 
	C397.635803,550.081299 397.409851,549.819275 397.199951,549.286865 
	C397.428986,549.283447 397.641907,549.550476 397.858276,550.080383 
z"/>
<path fill="#FEF4F4" opacity="1.000000" stroke="none" 
	d="
M165.981384,549.773071 
	C165.729904,549.888611 165.543365,549.719666 165.463470,549.251465 
	C165.707123,549.170593 165.865860,549.349365 165.981384,549.773071 
z"/>
<path fill="#FEF0F0" opacity="1.000000" stroke="none" 
	d="
M391.848541,543.435852 
	C391.965485,543.607178 391.532074,543.634277 391.532074,543.634277 
	C391.532074,543.634277 391.168884,543.396179 391.063873,543.205872 
	C391.251709,542.989136 391.509277,543.072144 391.848541,543.435852 
z"/>
<path fill="#FFF1F1" opacity="1.000000" stroke="none" 
	d="
M132.016235,542.035400 
	C132.028549,542.237976 131.787415,542.475403 131.285110,542.724976 
	C131.270218,542.514832 131.516495,542.292603 132.016235,542.035400 
z"/>
<path fill="#FEF4F4" opacity="1.000000" stroke="none" 
	d="
M185.495529,548.174683 
	C185.792267,548.370544 185.729538,548.671265 185.274887,549.053345 
	C185.036850,548.854248 185.121216,548.569214 185.495529,548.174683 
z"/>
<path fill="#FCCCCB" opacity="1.000000" stroke="none" 
	d="
M46.586868,544.100708 
	C46.747017,544.303040 46.671936,544.632568 46.372383,545.094727 
	C46.215824,544.894165 46.283730,544.561035 46.586868,544.100708 
z"/>
<path fill="#FDF8F8" opacity="1.000000" stroke="none" 
	d="
M123.884796,545.066162 
	C123.558273,545.157593 123.372459,544.901855 123.341461,544.293457 
	C123.632889,544.234070 123.809303,544.493469 123.884796,545.066162 
z"/>
<path fill="#FEF4F4" opacity="1.000000" stroke="none" 
	d="
M200.948975,547.866699 
	C200.670151,547.978394 200.467621,547.780518 200.381653,547.260376 
	C200.657578,547.175720 200.833267,547.382019 200.948975,547.866699 
z"/>
<path fill="#FEF4F4" opacity="1.000000" stroke="none" 
	d="
M164.966522,547.743164 
	C164.717041,547.885498 164.497009,547.724976 164.346634,547.243408 
	C164.599884,547.126038 164.793121,547.298767 164.966522,547.743164 
z"/>
<path fill="#FEF0F0" opacity="1.000000" stroke="none" 
	d="
M394.950745,545.633362 
	C394.699371,545.841675 394.438202,545.699829 394.191040,545.188843 
	C394.432617,545.022522 394.677917,545.177063 394.950745,545.633362 
z"/>
<path fill="#FFF1F1" opacity="1.000000" stroke="none" 
	d="
M129.513596,544.159058 
	C129.764267,544.359741 129.682526,544.650391 129.254150,545.019287 
	C129.023041,544.816589 129.114258,544.533691 129.513596,544.159058 
z"/>
<path fill="#FFF1F1" opacity="1.000000" stroke="none" 
	d="
M161.883209,544.505371 
	C161.654327,544.762268 161.400665,544.663696 161.147156,544.183594 
	C161.363373,543.997131 161.600418,544.113098 161.883209,544.505371 
z"/>
<path fill="#FEF4F4" opacity="1.000000" stroke="none" 
	d="
M209.937607,569.875977 
	C209.640549,570.008240 209.427032,569.808838 209.343735,569.261597 
	C209.626999,569.172302 209.809387,569.382507 209.937607,569.875977 
z"/>
<path fill="#FEF4F4" opacity="1.000000" stroke="none" 
	d="
M462.019958,541.109009 
	C462.134247,541.444580 461.890198,541.650330 461.280945,541.706543 
	C461.197113,541.394592 461.445770,541.201965 462.019958,541.109009 
z"/>
<path fill="#FEF0F0" opacity="1.000000" stroke="none" 
	d="
M391.117920,565.930298 
	C390.980804,565.624329 391.184906,565.403198 391.743103,565.302979 
	C391.848419,565.600952 391.635742,565.798035 391.117920,565.930298 
z"/>
<path fill="#FEF4F4" opacity="1.000000" stroke="none" 
	d="
M161.237610,564.968384 
	C161.103470,564.713745 161.269089,564.498352 161.752411,564.367188 
	C161.862244,564.628235 161.684662,564.813538 161.237610,564.968384 
z"/>
<path fill="#FEF4F4" opacity="1.000000" stroke="none" 
	d="
M481.937988,563.788940 
	C481.655670,563.964539 481.410828,563.794861 481.257050,563.253784 
	C481.532257,563.128845 481.741364,563.315979 481.937988,563.788940 
z"/>
<path fill="#FEF0F0" opacity="1.000000" stroke="none" 
	d="
M394.364258,563.970459 
	C394.182404,563.717407 394.330841,563.475342 394.834290,563.283630 
	C394.968109,563.527405 394.803192,563.743286 394.364258,563.970459 
z"/>
<path fill="#FEF4F4" opacity="1.000000" stroke="none" 
	d="
M179.510010,563.176819 
	C179.809875,563.375427 179.746780,563.683289 179.289734,564.078003 
	C179.042709,563.875305 179.126465,563.582336 179.510010,563.176819 
z"/>
<path fill="#FEF4F4" opacity="1.000000" stroke="none" 
	d="
M180.372665,561.168701 
	C180.633423,561.339661 180.577530,561.583252 180.172058,561.875427 
	C179.987076,561.706848 180.064911,561.479309 180.372665,561.168701 
z"/>
<path fill="#FEF4F4" opacity="1.000000" stroke="none" 
	d="
M176.381531,571.164062 
	C176.641724,571.340332 176.581802,571.584167 176.168182,571.870361 
	C175.985977,571.697876 176.068298,571.470886 176.381531,571.164062 
z"/>
<path fill="#FEF0F0" opacity="1.000000" stroke="none" 
	d="
M397.513184,559.832825 
	C397.228516,559.639282 397.289459,559.337891 397.720581,558.947571 
	C397.973358,559.147522 397.896057,559.436279 397.513184,559.832825 
z"/>
<path fill="#FEF4F4" opacity="1.000000" stroke="none" 
	d="
M490.988434,541.098877 
	C491.096039,541.412415 490.860229,541.614075 490.275879,541.690735 
	C490.190460,541.394775 490.429657,541.201904 490.988434,541.098877 
z"/>
<path fill="#FEF4F4" opacity="1.000000" stroke="none" 
	d="
M181.506805,558.174438 
	C181.806488,558.373657 181.742645,558.678101 181.282410,559.063660 
	C181.040283,558.860657 181.126022,558.572266 181.506805,558.174438 
z"/>
<path fill="#FEF4F4" opacity="1.000000" stroke="none" 
	d="
M182.368469,556.168701 
	C182.625687,556.338379 182.569687,556.579529 182.167267,556.867676 
	C181.985840,556.700562 182.063965,556.475708 182.368469,556.168701 
z"/>
<path fill="#FDF8F8" opacity="1.000000" stroke="none" 
	d="
M48.939377,542.088318 
	C49.063168,542.390076 48.845848,542.597412 48.275246,542.680298 
	C48.193249,542.405212 48.418682,542.217896 48.939377,542.088318 
z"/>
<path fill="#FEF4F4" opacity="1.000000" stroke="none" 
	d="
M203.868164,555.052856 
	C203.652512,555.055237 203.424286,554.804260 203.217773,554.287842 
	C203.444870,554.281494 203.650238,554.540405 203.868164,555.052856 
z"/>
<path fill="#FEF4F4" opacity="1.000000" stroke="none" 
	d="
M183.506317,553.175537 
	C183.801712,553.373169 183.737396,553.677673 183.282990,554.067017 
	C183.040985,553.866028 183.125549,553.576233 183.506317,553.175537 
z"/>
<path fill="#FEF4F4" opacity="1.000000" stroke="none" 
	d="
M202.950272,552.862793 
	C202.667023,552.979858 202.462006,552.783752 202.378937,552.260986 
	C202.659042,552.173889 202.834900,552.379028 202.950272,552.862793 
z"/>
<path fill="#FFFEFE" opacity="1.000000" stroke="none" 
	d="
M442.930267,242.332733 
	C426.916718,252.199356 410.892548,261.665833 394.809052,271.030365 
	C359.467926,291.607635 324.096771,312.133331 288.414673,332.761505 
	C288.014038,331.516388 287.869049,330.189819 287.868805,328.863281 
	C287.857849,271.272949 287.859283,213.682648 287.864807,156.092331 
	C287.864868,155.428802 287.937622,154.765274 288.113586,153.663574 
	C311.726105,139.683975 335.219818,126.174202 358.671997,112.592720 
	C385.296417,97.174164 411.882782,81.689850 438.490326,66.242119 
	C439.631042,65.579865 440.818359,64.997986 442.892761,63.895821 
	C442.892761,123.625671 442.892761,182.755997 442.930267,242.332733 
z"/>
<path fill="#FDF8F8" opacity="1.000000" stroke="none" 
	d="
M72.986145,559.530151 
	C67.364845,559.941956 61.727116,559.941956 55.699203,559.941956 
	C55.699203,556.503052 55.699203,553.128174 55.699203,549.136719 
	C62.221859,549.136719 68.655914,549.136719 75.550232,549.233154 
	C74.973801,549.885925 73.963821,550.854675 72.895584,550.923889 
	C69.167274,551.165283 65.372055,550.767761 61.699127,551.291931 
	C60.030308,551.530029 58.588520,553.359131 57.043755,554.466553 
	C58.477318,555.311401 59.836830,556.669006 61.360611,556.889038 
	C64.111374,557.286377 66.981514,556.805115 69.758049,557.101135 
	C70.887459,557.221558 71.902596,558.413818 72.986145,559.530151 
z"/>
<path fill="#FDF8F8" opacity="1.000000" stroke="none" 
	d="
M77.906616,579.546631 
	C70.714661,579.938660 63.426884,579.938660 55.722382,579.938660 
	C55.722382,575.830383 55.722382,571.820435 55.722382,567.216431 
	C61.922119,567.216431 68.006607,567.216431 74.551994,567.308716 
	C73.788597,567.933960 72.590630,568.837708 71.334846,568.926880 
	C68.206718,569.148926 65.026520,569.253601 61.914825,568.937134 
	C57.883709,568.527222 56.720253,570.127502 56.905018,573.991882 
	C57.044613,576.911621 57.792694,578.201416 60.898899,578.048950 
	C65.025612,577.846436 69.173561,577.898987 73.304497,578.053284 
	C74.818199,578.109863 76.309349,578.769836 77.906616,579.546631 
z"/>
<path fill="#FDF8F8" opacity="1.000000" stroke="none" 
	d="
M91.084923,550.440613 
	C93.695015,550.422485 96.392136,550.783020 99.013840,551.572876 
	C96.349602,551.607849 93.760780,551.213562 91.084923,550.440613 
z"/>
<path fill="#FCCCCB" opacity="1.000000" stroke="none" 
	d="
M81.618050,584.816956 
	C81.292603,584.257690 81.203995,583.502869 81.125557,582.367554 
	C81.375450,582.865173 81.615173,583.743225 81.618050,584.816956 
z"/>
<path fill="#FDF8F8" opacity="1.000000" stroke="none" 
	d="
M79.814056,580.521240 
	C79.624565,580.768372 79.319298,580.697144 78.918640,580.282349 
	C79.116035,580.054871 79.407715,580.142883 79.814056,580.521240 
z"/>
<path fill="#FDF8F8" opacity="1.000000" stroke="none" 
	d="
M76.791893,560.408569 
	C76.940018,560.559326 76.498756,560.584473 76.498756,560.584473 
	C76.498756,560.584473 76.087570,560.422363 75.961197,560.240845 
	C76.127930,560.030029 76.397575,560.096191 76.791893,560.408569 
z"/>
<path fill="#FFF8F8" opacity="1.000000" stroke="none" 
	d="
M439.830994,558.794678 
	C439.746521,563.482910 440.197113,567.901001 439.232483,571.984863 
	C437.859772,577.796692 433.171417,580.875061 427.504761,580.929871 
	C421.964294,580.983459 416.921082,577.848083 415.738739,572.083984 
	C414.772644,567.374146 414.763885,562.174316 415.671753,557.449402 
	C416.761200,551.779419 421.390228,548.863831 426.945465,548.745544 
	C433.429443,548.607605 436.947327,551.256470 439.830994,558.794678 
z"/>
<path fill="#FFF1F1" opacity="1.000000" stroke="none" 
	d="
M149.997742,561.208862 
	C145.970825,561.254333 142.362488,561.254333 138.520248,561.254333 
	C138.520248,557.086243 138.520248,553.342102 138.520248,549.026855 
	C142.298447,549.026855 145.900620,548.972900 149.500473,549.041626 
	C153.323364,549.114563 156.588974,550.267395 156.946075,554.696960 
	C157.309006,559.198547 154.347504,560.773743 149.997742,561.208862 
z"/>
<path fill="#FFF1F1" opacity="1.000000" stroke="none" 
	d="
M130.021729,586.653809 
	C129.555038,586.404968 129.049286,585.873596 128.776260,585.169495 
	C129.333557,585.454895 129.658096,585.913086 130.021729,586.653809 
z"/>
<path fill="#FFEBEB" opacity="1.000000" stroke="none" 
	d="
M231.105804,558.414551 
	C237.417816,557.657166 243.684128,557.326599 250.393951,556.991455 
	C250.525314,557.945312 250.189285,559.746155 249.904541,559.738159 
	C243.619644,559.560059 237.340424,559.181641 231.105804,558.414551 
z"/>
<path fill="#FCCCCB" opacity="1.000000" stroke="none" 
	d="
M78.129669,587.662354 
	C78.161369,587.420410 78.314827,587.314087 78.747253,587.232300 
	C78.767952,587.437256 78.509689,587.617554 78.129669,587.662354 
z"/>
<path fill="#FFF8F8" opacity="1.000000" stroke="none" 
	d="
M343.085205,564.951416 
	C342.479279,578.139587 338.182556,581.294067 323.117859,579.757568 
	C323.117859,569.798828 323.117859,559.800842 323.117859,549.840820 
	C337.398499,547.631287 342.730499,551.606628 343.085205,564.951416 
z"/>
<path fill="#FEF4F4" opacity="1.000000" stroke="none" 
	d="
M376.029938,548.985596 
	C378.979279,549.100037 381.860687,548.470947 383.832886,549.531921 
	C385.938782,550.664856 388.308563,553.316650 388.454437,555.449524 
	C388.571716,557.164673 385.807922,560.246094 383.857147,560.693848 
	C379.603058,561.670288 375.052490,561.354919 370.338287,561.581116 
	C370.338287,557.208923 370.338287,553.465698 370.338287,548.985901 
	C372.066498,548.985901 373.814178,548.985901 376.029938,548.985596 
z"/>
<path fill="#FEE6E6" opacity="1.000000" stroke="none" 
	d="
M191.676483,554.928711 
	C192.169281,553.888611 192.522507,553.186646 193.343933,551.554260 
	C195.725555,557.999817 197.791122,563.590027 200.003922,569.578674 
	C195.335358,569.578674 191.281128,569.578674 186.445282,569.578674 
	C188.248627,564.509705 189.892776,559.888245 191.676483,554.928711 
z"/>
</svg>